%TF.GenerationSoftware,KiCad,Pcbnew,7.0.1*%
%TF.CreationDate,2023-04-20T17:50:10-06:00*%
%TF.ProjectId,Phase_B_Prototype,50686173-655f-4425-9f50-726f746f7479,rev?*%
%TF.SameCoordinates,Original*%
%TF.FileFunction,Copper,L1,Top*%
%TF.FilePolarity,Positive*%
%FSLAX46Y46*%
G04 Gerber Fmt 4.6, Leading zero omitted, Abs format (unit mm)*
G04 Created by KiCad (PCBNEW 7.0.1) date 2023-04-20 17:50:10*
%MOMM*%
%LPD*%
G01*
G04 APERTURE LIST*
G04 Aperture macros list*
%AMRoundRect*
0 Rectangle with rounded corners*
0 $1 Rounding radius*
0 $2 $3 $4 $5 $6 $7 $8 $9 X,Y pos of 4 corners*
0 Add a 4 corners polygon primitive as box body*
4,1,4,$2,$3,$4,$5,$6,$7,$8,$9,$2,$3,0*
0 Add four circle primitives for the rounded corners*
1,1,$1+$1,$2,$3*
1,1,$1+$1,$4,$5*
1,1,$1+$1,$6,$7*
1,1,$1+$1,$8,$9*
0 Add four rect primitives between the rounded corners*
20,1,$1+$1,$2,$3,$4,$5,0*
20,1,$1+$1,$4,$5,$6,$7,0*
20,1,$1+$1,$6,$7,$8,$9,0*
20,1,$1+$1,$8,$9,$2,$3,0*%
G04 Aperture macros list end*
%TA.AperFunction,SMDPad,CuDef*%
%ADD10RoundRect,0.243750X-0.243750X-0.456250X0.243750X-0.456250X0.243750X0.456250X-0.243750X0.456250X0*%
%TD*%
%TA.AperFunction,SMDPad,CuDef*%
%ADD11RoundRect,0.200000X0.200000X0.275000X-0.200000X0.275000X-0.200000X-0.275000X0.200000X-0.275000X0*%
%TD*%
%TA.AperFunction,ComponentPad*%
%ADD12R,1.700000X1.700000*%
%TD*%
%TA.AperFunction,ComponentPad*%
%ADD13O,1.700000X1.700000*%
%TD*%
%TA.AperFunction,SMDPad,CuDef*%
%ADD14RoundRect,0.250000X-0.262500X-0.450000X0.262500X-0.450000X0.262500X0.450000X-0.262500X0.450000X0*%
%TD*%
%TA.AperFunction,SMDPad,CuDef*%
%ADD15RoundRect,0.225000X0.250000X-0.225000X0.250000X0.225000X-0.250000X0.225000X-0.250000X-0.225000X0*%
%TD*%
%TA.AperFunction,SMDPad,CuDef*%
%ADD16RoundRect,0.150000X-0.150000X0.512500X-0.150000X-0.512500X0.150000X-0.512500X0.150000X0.512500X0*%
%TD*%
%TA.AperFunction,SMDPad,CuDef*%
%ADD17RoundRect,0.250000X0.450000X-0.262500X0.450000X0.262500X-0.450000X0.262500X-0.450000X-0.262500X0*%
%TD*%
%TA.AperFunction,SMDPad,CuDef*%
%ADD18RoundRect,0.243750X-0.456250X0.243750X-0.456250X-0.243750X0.456250X-0.243750X0.456250X0.243750X0*%
%TD*%
%TA.AperFunction,SMDPad,CuDef*%
%ADD19RoundRect,0.225000X-0.250000X0.225000X-0.250000X-0.225000X0.250000X-0.225000X0.250000X0.225000X0*%
%TD*%
%TA.AperFunction,SMDPad,CuDef*%
%ADD20RoundRect,0.200000X-0.275000X0.200000X-0.275000X-0.200000X0.275000X-0.200000X0.275000X0.200000X0*%
%TD*%
%TA.AperFunction,SMDPad,CuDef*%
%ADD21RoundRect,0.100000X-0.637500X-0.100000X0.637500X-0.100000X0.637500X0.100000X-0.637500X0.100000X0*%
%TD*%
%TA.AperFunction,SMDPad,CuDef*%
%ADD22R,1.500000X0.550000*%
%TD*%
%TA.AperFunction,SMDPad,CuDef*%
%ADD23R,0.550000X1.500000*%
%TD*%
%TA.AperFunction,SMDPad,CuDef*%
%ADD24RoundRect,0.250000X0.250000X0.475000X-0.250000X0.475000X-0.250000X-0.475000X0.250000X-0.475000X0*%
%TD*%
%TA.AperFunction,SMDPad,CuDef*%
%ADD25RoundRect,0.225000X-0.225000X-0.250000X0.225000X-0.250000X0.225000X0.250000X-0.225000X0.250000X0*%
%TD*%
%TA.AperFunction,SMDPad,CuDef*%
%ADD26R,2.000000X1.500000*%
%TD*%
%TA.AperFunction,SMDPad,CuDef*%
%ADD27R,1.000000X0.700000*%
%TD*%
%TA.AperFunction,SMDPad,CuDef*%
%ADD28RoundRect,0.250000X-0.312500X-1.450000X0.312500X-1.450000X0.312500X1.450000X-0.312500X1.450000X0*%
%TD*%
%TA.AperFunction,SMDPad,CuDef*%
%ADD29RoundRect,0.225000X0.225000X0.250000X-0.225000X0.250000X-0.225000X-0.250000X0.225000X-0.250000X0*%
%TD*%
%TA.AperFunction,SMDPad,CuDef*%
%ADD30RoundRect,0.200000X-0.200000X-0.275000X0.200000X-0.275000X0.200000X0.275000X-0.200000X0.275000X0*%
%TD*%
%TA.AperFunction,SMDPad,CuDef*%
%ADD31RoundRect,0.250000X0.262500X0.450000X-0.262500X0.450000X-0.262500X-0.450000X0.262500X-0.450000X0*%
%TD*%
%TA.AperFunction,SMDPad,CuDef*%
%ADD32R,1.200000X1.400000*%
%TD*%
%TA.AperFunction,SMDPad,CuDef*%
%ADD33RoundRect,0.150000X-0.512500X-0.150000X0.512500X-0.150000X0.512500X0.150000X-0.512500X0.150000X0*%
%TD*%
%TA.AperFunction,SMDPad,CuDef*%
%ADD34R,2.000000X0.500000*%
%TD*%
%TA.AperFunction,SMDPad,CuDef*%
%ADD35R,1.700000X2.000000*%
%TD*%
%TA.AperFunction,ComponentPad*%
%ADD36R,1.500000X1.500000*%
%TD*%
%TA.AperFunction,ComponentPad*%
%ADD37C,1.500000*%
%TD*%
%TA.AperFunction,ComponentPad*%
%ADD38R,2.000000X2.000000*%
%TD*%
%TA.AperFunction,ComponentPad*%
%ADD39C,2.000000*%
%TD*%
%TA.AperFunction,ViaPad*%
%ADD40C,0.600000*%
%TD*%
%TA.AperFunction,Conductor*%
%ADD41C,0.508000*%
%TD*%
%TA.AperFunction,Conductor*%
%ADD42C,0.304800*%
%TD*%
%TA.AperFunction,Conductor*%
%ADD43C,0.250000*%
%TD*%
%TA.AperFunction,Conductor*%
%ADD44C,0.203200*%
%TD*%
%TA.AperFunction,Conductor*%
%ADD45C,0.200000*%
%TD*%
G04 APERTURE END LIST*
D10*
%TO.P,D3,1,K*%
%TO.N,GND*%
X124625000Y-102900000D03*
%TO.P,D3,2,A*%
%TO.N,Net-(D3-A)*%
X126500000Y-102900000D03*
%TD*%
D11*
%TO.P,R16,1*%
%TO.N,USB_CONN_D-*%
X126085000Y-97920000D03*
%TO.P,R16,2*%
%TO.N,Net-(J1-D-)*%
X124435000Y-97920000D03*
%TD*%
D12*
%TO.P,J3,1,MISO*%
%TO.N,MISO*%
X139200000Y-106890000D03*
D13*
%TO.P,J3,2,VCC*%
%TO.N,+5V*%
X139200000Y-104350000D03*
%TO.P,J3,3,SCK*%
%TO.N,SCK*%
X136660000Y-106890000D03*
%TO.P,J3,4,MOSI*%
%TO.N,MOSI*%
X136660000Y-104350000D03*
%TO.P,J3,5,~{RST}*%
%TO.N,RST*%
X134120000Y-106890000D03*
%TO.P,J3,6,GND*%
%TO.N,GND*%
X134120000Y-104350000D03*
%TD*%
D14*
%TO.P,R12,1*%
%TO.N,dp*%
X118147500Y-79120000D03*
%TO.P,R12,2*%
%TO.N,Net-(U1-DPX)*%
X119972500Y-79120000D03*
%TD*%
D15*
%TO.P,C13,1*%
%TO.N,Net-(U5-BP)*%
X160190000Y-106610000D03*
%TO.P,C13,2*%
%TO.N,GND*%
X160190000Y-105060000D03*
%TD*%
D16*
%TO.P,U5,1,VIN*%
%TO.N,+5V*%
X163910000Y-104712500D03*
%TO.P,U5,2,GND*%
%TO.N,GND*%
X162960000Y-104712500D03*
%TO.P,U5,3,ON/~{OFF}*%
%TO.N,+5V*%
X162010000Y-104712500D03*
%TO.P,U5,4,BP*%
%TO.N,Net-(U5-BP)*%
X162010000Y-106987500D03*
%TO.P,U5,5,VOUT*%
%TO.N,+3.3V*%
X163910000Y-106987500D03*
%TD*%
D17*
%TO.P,R4,1*%
%TO.N,GREEN_LED*%
X166350000Y-89942500D03*
%TO.P,R4,2*%
%TO.N,Net-(D2-A)*%
X166350000Y-88117500D03*
%TD*%
D18*
%TO.P,D2,1,K*%
%TO.N,GND*%
X166360000Y-84327500D03*
%TO.P,D2,2,A*%
%TO.N,Net-(D2-A)*%
X166360000Y-86202500D03*
%TD*%
D19*
%TO.P,C7,1*%
%TO.N,+5V*%
X156710000Y-103560000D03*
%TO.P,C7,2*%
%TO.N,GND*%
X156710000Y-105110000D03*
%TD*%
D12*
%TO.P,J4,1,Pin_1*%
%TO.N,GND*%
X155240000Y-110110000D03*
D13*
%TO.P,J4,2,Pin_2*%
%TO.N,TX*%
X155240000Y-112650000D03*
%TO.P,J4,3,Pin_3*%
%TO.N,unconnected-(J4-Pin_3-Pad3)*%
X157780000Y-110110000D03*
%TO.P,J4,4,Pin_4*%
%TO.N,+3.3V*%
X157780000Y-112650000D03*
%TO.P,J4,5,Pin_5*%
%TO.N,Net-(J4-Pin_5)*%
X160320000Y-110110000D03*
%TO.P,J4,6,Pin_6*%
%TO.N,+3.3V*%
X160320000Y-112650000D03*
%TO.P,J4,7,Pin_7*%
%TO.N,RX*%
X162860000Y-110110000D03*
%TO.P,J4,8,Pin_8*%
%TO.N,+3.3V*%
X162860000Y-112650000D03*
%TD*%
D18*
%TO.P,D1,1,K*%
%TO.N,GND*%
X163360000Y-84337500D03*
%TO.P,D1,2,A*%
%TO.N,Net-(D1-A)*%
X163360000Y-86212500D03*
%TD*%
D20*
%TO.P,R13,1*%
%TO.N,+5V*%
X142460000Y-108725000D03*
%TO.P,R13,2*%
%TO.N,RST*%
X142460000Y-110375000D03*
%TD*%
D14*
%TO.P,R5,1*%
%TO.N,a*%
X118175000Y-58700000D03*
%TO.P,R5,2*%
%TO.N,Net-(U1-a)*%
X120000000Y-58700000D03*
%TD*%
%TO.P,R9,1*%
%TO.N,e*%
X118147500Y-70270000D03*
%TO.P,R9,2*%
%TO.N,Net-(U1-e)*%
X119972500Y-70270000D03*
%TD*%
%TO.P,R10,1*%
%TO.N,f*%
X118147500Y-73220000D03*
%TO.P,R10,2*%
%TO.N,Net-(U1-f)*%
X119972500Y-73220000D03*
%TD*%
D21*
%TO.P,U2,1,QB*%
%TO.N,b*%
X115137500Y-83825000D03*
%TO.P,U2,2,QC*%
%TO.N,c*%
X115137500Y-84475000D03*
%TO.P,U2,3,QD*%
%TO.N,d*%
X115137500Y-85125000D03*
%TO.P,U2,4,QE*%
%TO.N,e*%
X115137500Y-85775000D03*
%TO.P,U2,5,QF*%
%TO.N,f*%
X115137500Y-86425000D03*
%TO.P,U2,6,QG*%
%TO.N,g*%
X115137500Y-87075000D03*
%TO.P,U2,7,QH*%
%TO.N,dp*%
X115137500Y-87725000D03*
%TO.P,U2,8,GND*%
%TO.N,GND*%
X115137500Y-88375000D03*
%TO.P,U2,9,QH'*%
%TO.N,unconnected-(U2-QH'-Pad9)*%
X120862500Y-88375000D03*
%TO.P,U2,10,~{SRCLR}*%
%TO.N,+5V*%
X120862500Y-87725000D03*
%TO.P,U2,11,SRCLK*%
%TO.N,SH_CP*%
X120862500Y-87075000D03*
%TO.P,U2,12,RCLK*%
%TO.N,ST_CP*%
X120862500Y-86425000D03*
%TO.P,U2,13,~{OE}*%
%TO.N,GND*%
X120862500Y-85775000D03*
%TO.P,U2,14,SER*%
%TO.N,DS*%
X120862500Y-85125000D03*
%TO.P,U2,15,QA*%
%TO.N,a*%
X120862500Y-84475000D03*
%TO.P,U2,16,VCC*%
%TO.N,+5V*%
X120862500Y-83825000D03*
%TD*%
D22*
%TO.P,U3,1,PE6*%
%TO.N,SH_CP*%
X143160000Y-96550000D03*
%TO.P,U3,2,UVCC*%
%TO.N,+5V*%
X143160000Y-97350000D03*
%TO.P,U3,3,D-*%
%TO.N,USB_D-*%
X143160000Y-98150000D03*
%TO.P,U3,4,D+*%
%TO.N,USB_D+*%
X143160000Y-98950000D03*
%TO.P,U3,5,UGND*%
%TO.N,GND*%
X143160000Y-99750000D03*
%TO.P,U3,6,UCAP*%
%TO.N,/UCAP*%
X143160000Y-100550000D03*
%TO.P,U3,7,VBUS*%
%TO.N,+5V*%
X143160000Y-101350000D03*
%TO.P,U3,8,PB0*%
%TO.N,unconnected-(U3-PB0-Pad8)*%
X143160000Y-102150000D03*
%TO.P,U3,9,PB1*%
%TO.N,SCK*%
X143160000Y-102950000D03*
%TO.P,U3,10,PB2*%
%TO.N,MOSI*%
X143160000Y-103750000D03*
%TO.P,U3,11,PB3*%
%TO.N,MISO*%
X143160000Y-104550000D03*
D23*
%TO.P,U3,12,PB7*%
%TO.N,Dig3*%
X144860000Y-106250000D03*
%TO.P,U3,13,~{RESET}*%
%TO.N,RST*%
X145660000Y-106250000D03*
%TO.P,U3,14,VCC*%
%TO.N,+5V*%
X146460000Y-106250000D03*
%TO.P,U3,15,GND*%
%TO.N,GND*%
X147260000Y-106250000D03*
%TO.P,U3,16,XTAL2*%
%TO.N,XTAL2*%
X148060000Y-106250000D03*
%TO.P,U3,17,XTAL1*%
%TO.N,XTAL1*%
X148860000Y-106250000D03*
%TO.P,U3,18,PD0*%
%TO.N,Button_2*%
X149660000Y-106250000D03*
%TO.P,U3,19,PD1*%
%TO.N,Button_1*%
X150460000Y-106250000D03*
%TO.P,U3,20,PD2*%
%TO.N,TX*%
X151260000Y-106250000D03*
%TO.P,U3,21,PD3*%
%TO.N,RX*%
X152060000Y-106250000D03*
%TO.P,U3,22,PD5*%
%TO.N,unconnected-(U3-PD5-Pad22)*%
X152860000Y-106250000D03*
D22*
%TO.P,U3,23,GND*%
%TO.N,GND*%
X154560000Y-104550000D03*
%TO.P,U3,24,AVCC*%
%TO.N,+5V*%
X154560000Y-103750000D03*
%TO.P,U3,25,PD4*%
%TO.N,GREEN_LED*%
X154560000Y-102950000D03*
%TO.P,U3,26,PD6*%
%TO.N,Dig2*%
X154560000Y-102150000D03*
%TO.P,U3,27,PD7*%
%TO.N,Buzzer*%
X154560000Y-101350000D03*
%TO.P,U3,28,PB4*%
%TO.N,ST_CP*%
X154560000Y-100550000D03*
%TO.P,U3,29,PB5*%
%TO.N,DS*%
X154560000Y-99750000D03*
%TO.P,U3,30,PB6*%
%TO.N,Dig4*%
X154560000Y-98950000D03*
%TO.P,U3,31,PC6*%
%TO.N,RED_LED*%
X154560000Y-98150000D03*
%TO.P,U3,32,PC7*%
%TO.N,Dig1*%
X154560000Y-97350000D03*
%TO.P,U3,33,~{HWB}/PE2*%
%TO.N,GND*%
X154560000Y-96550000D03*
D23*
%TO.P,U3,34,VCC*%
%TO.N,+5V*%
X152860000Y-94850000D03*
%TO.P,U3,35,GND*%
%TO.N,GND*%
X152060000Y-94850000D03*
%TO.P,U3,36,PF7*%
%TO.N,unconnected-(U3-PF7-Pad36)*%
X151260000Y-94850000D03*
%TO.P,U3,37,PF6*%
%TO.N,unconnected-(U3-PF6-Pad37)*%
X150460000Y-94850000D03*
%TO.P,U3,38,PF5*%
%TO.N,unconnected-(U3-PF5-Pad38)*%
X149660000Y-94850000D03*
%TO.P,U3,39,PF4*%
%TO.N,unconnected-(U3-PF4-Pad39)*%
X148860000Y-94850000D03*
%TO.P,U3,40,PF1*%
%TO.N,unconnected-(U3-PF1-Pad40)*%
X148060000Y-94850000D03*
%TO.P,U3,41,PF0*%
%TO.N,unconnected-(U3-PF0-Pad41)*%
X147260000Y-94850000D03*
%TO.P,U3,42,AREF*%
%TO.N,/AREF*%
X146460000Y-94850000D03*
%TO.P,U3,43,GND*%
%TO.N,GND*%
X145660000Y-94850000D03*
%TO.P,U3,44,AVCC*%
%TO.N,+5V*%
X144860000Y-94850000D03*
%TD*%
D15*
%TO.P,C2,1*%
%TO.N,XTAL1*%
X151360000Y-111870000D03*
%TO.P,C2,2*%
%TO.N,GND*%
X151360000Y-110320000D03*
%TD*%
D20*
%TO.P,R17,1*%
%TO.N,+3.3V*%
X166260000Y-107350000D03*
%TO.P,R17,2*%
%TO.N,Net-(J4-Pin_5)*%
X166260000Y-109000000D03*
%TD*%
D15*
%TO.P,C11,1*%
%TO.N,/AREF*%
X139660000Y-93145000D03*
%TO.P,C11,2*%
%TO.N,GND*%
X139660000Y-91595000D03*
%TD*%
D24*
%TO.P,C4,1*%
%TO.N,+5V*%
X141250000Y-94990000D03*
%TO.P,C4,2*%
%TO.N,GND*%
X139350000Y-94990000D03*
%TD*%
D14*
%TO.P,R11,1*%
%TO.N,g*%
X118147500Y-76170000D03*
%TO.P,R11,2*%
%TO.N,Net-(U1-g)*%
X119972500Y-76170000D03*
%TD*%
D25*
%TO.P,C9,1*%
%TO.N,+5V*%
X152930000Y-92930000D03*
%TO.P,C9,2*%
%TO.N,GND*%
X154480000Y-92930000D03*
%TD*%
D11*
%TO.P,R1,1*%
%TO.N,Button_1*%
X124790000Y-117940000D03*
%TO.P,R1,2*%
%TO.N,GND*%
X123140000Y-117940000D03*
%TD*%
D19*
%TO.P,C1,1*%
%TO.N,XTAL2*%
X145730000Y-110425000D03*
%TO.P,C1,2*%
%TO.N,GND*%
X145730000Y-111975000D03*
%TD*%
D26*
%TO.P,S1,A1,NO_1*%
%TO.N,unconnected-(S1-NO_1-PadA1)*%
X116400000Y-123800000D03*
%TO.P,S1,B1,NO_2*%
%TO.N,Button_1*%
X130700000Y-123800000D03*
%TO.P,S1,C1,COM_1*%
%TO.N,+5V*%
X116400000Y-128800000D03*
%TO.P,S1,D1,COM_2*%
%TO.N,unconnected-(S1-COM_2-PadD1)*%
X130700000Y-128800000D03*
%TD*%
D27*
%TO.P,S3,1*%
%TO.N,GND*%
X140760000Y-114275000D03*
%TO.P,S3,2*%
%TO.N,N/C*%
X134760000Y-114275000D03*
%TO.P,S3,3*%
%TO.N,RST*%
X140760000Y-110575000D03*
%TO.P,S3,4*%
%TO.N,N/C*%
X134760000Y-110575000D03*
%TD*%
D28*
%TO.P,F2,1*%
%TO.N,Net-(J1-VBUS)*%
X126762500Y-93500000D03*
%TO.P,F2,2*%
%TO.N,+5V*%
X131037500Y-93500000D03*
%TD*%
D14*
%TO.P,R6,1*%
%TO.N,b*%
X118175000Y-61650000D03*
%TO.P,R6,2*%
%TO.N,Net-(U1-b)*%
X120000000Y-61650000D03*
%TD*%
D29*
%TO.P,C12,1*%
%TO.N,+5V*%
X161855000Y-102710000D03*
%TO.P,C12,2*%
%TO.N,GND*%
X160305000Y-102710000D03*
%TD*%
D30*
%TO.P,R15,1*%
%TO.N,Net-(J1-D+)*%
X124450000Y-99500000D03*
%TO.P,R15,2*%
%TO.N,USB_CONN_D+*%
X126100000Y-99500000D03*
%TD*%
D25*
%TO.P,C8,1*%
%TO.N,+5V*%
X145285000Y-92860000D03*
%TO.P,C8,2*%
%TO.N,GND*%
X146835000Y-92860000D03*
%TD*%
D29*
%TO.P,C6,1*%
%TO.N,+5V*%
X141305000Y-101380000D03*
%TO.P,C6,2*%
%TO.N,GND*%
X139755000Y-101380000D03*
%TD*%
D15*
%TO.P,C14,1*%
%TO.N,+3.3V*%
X166270000Y-105740000D03*
%TO.P,C14,2*%
%TO.N,GND*%
X166270000Y-104190000D03*
%TD*%
D14*
%TO.P,R8,1*%
%TO.N,d*%
X118147500Y-67320000D03*
%TO.P,R8,2*%
%TO.N,Net-(U1-d)*%
X119972500Y-67320000D03*
%TD*%
D29*
%TO.P,C10,1*%
%TO.N,/UCAP*%
X141295000Y-99800000D03*
%TO.P,C10,2*%
%TO.N,GND*%
X139745000Y-99800000D03*
%TD*%
D31*
%TO.P,R14,1*%
%TO.N,+5V*%
X130425000Y-102900000D03*
%TO.P,R14,2*%
%TO.N,Net-(D3-A)*%
X128600000Y-102900000D03*
%TD*%
D14*
%TO.P,R7,1*%
%TO.N,c*%
X118175000Y-64600000D03*
%TO.P,R7,2*%
%TO.N,Net-(U1-c)*%
X120000000Y-64600000D03*
%TD*%
D25*
%TO.P,C3,1*%
%TO.N,+5V*%
X145970000Y-108220000D03*
%TO.P,C3,2*%
%TO.N,GND*%
X147520000Y-108220000D03*
%TD*%
D32*
%TO.P,Y1,1,1*%
%TO.N,XTAL1*%
X149460000Y-112450000D03*
%TO.P,Y1,2,2*%
%TO.N,GND*%
X149460000Y-110250000D03*
%TO.P,Y1,3,3*%
%TO.N,XTAL2*%
X147760000Y-110250000D03*
%TO.P,Y1,4,4*%
%TO.N,GND*%
X147760000Y-112450000D03*
%TD*%
D33*
%TO.P,U4,1,I/O1*%
%TO.N,USB_CONN_D-*%
X131755000Y-97730000D03*
%TO.P,U4,2,GND*%
%TO.N,GND*%
X131755000Y-98680000D03*
%TO.P,U4,3,I/O2*%
%TO.N,USB_CONN_D+*%
X131755000Y-99630000D03*
%TO.P,U4,4,I/O2*%
%TO.N,USB_D+*%
X134030000Y-99630000D03*
%TO.P,U4,5,VBUS*%
%TO.N,+5V*%
X134030000Y-98680000D03*
%TO.P,U4,6,I/O1*%
%TO.N,USB_D-*%
X134030000Y-97730000D03*
%TD*%
D34*
%TO.P,J1,1,VBUS*%
%TO.N,Net-(J1-VBUS)*%
X119975000Y-97500000D03*
%TO.P,J1,2,D-*%
%TO.N,Net-(J1-D-)*%
X119975000Y-98300000D03*
%TO.P,J1,3,D+*%
%TO.N,Net-(J1-D+)*%
X119975000Y-99100000D03*
%TO.P,J1,4,ID*%
%TO.N,unconnected-(J1-ID-Pad4)*%
X119975000Y-99900000D03*
%TO.P,J1,5,GND*%
%TO.N,GND*%
X119975000Y-100700000D03*
D35*
%TO.P,J1,6,Shield*%
%TO.N,unconnected-(J1-Shield-Pad6)*%
X119875000Y-94650000D03*
X114425000Y-94650000D03*
X119875000Y-103550000D03*
X114425000Y-103550000D03*
%TD*%
D36*
%TO.P,U1,1,e*%
%TO.N,Net-(U1-e)*%
X141850000Y-75777500D03*
D37*
%TO.P,U1,2,d*%
%TO.N,Net-(U1-d)*%
X144390000Y-75777500D03*
%TO.P,U1,3,DPX*%
%TO.N,Net-(U1-DPX)*%
X146930000Y-75777500D03*
%TO.P,U1,4,c*%
%TO.N,Net-(U1-c)*%
X149470000Y-75777500D03*
%TO.P,U1,5,g*%
%TO.N,Net-(U1-g)*%
X152010000Y-75777500D03*
%TO.P,U1,6,CA4*%
%TO.N,Dig4*%
X154550000Y-75777500D03*
%TO.P,U1,7,b*%
%TO.N,Net-(U1-b)*%
X154550000Y-60537500D03*
%TO.P,U1,8,CA3*%
%TO.N,Dig3*%
X152010000Y-60537500D03*
%TO.P,U1,9,CA2*%
%TO.N,Dig2*%
X149470000Y-60537500D03*
%TO.P,U1,10,f*%
%TO.N,Net-(U1-f)*%
X146930000Y-60537500D03*
%TO.P,U1,11,a*%
%TO.N,Net-(U1-a)*%
X144390000Y-60537500D03*
%TO.P,U1,12,CA1*%
%TO.N,Dig1*%
X141850000Y-60537500D03*
%TD*%
D17*
%TO.P,R3,1*%
%TO.N,RED_LED*%
X163400000Y-89942500D03*
%TO.P,R3,2*%
%TO.N,Net-(D1-A)*%
X163400000Y-88117500D03*
%TD*%
D11*
%TO.P,R2,1*%
%TO.N,Button_2*%
X145040000Y-118100000D03*
%TO.P,R2,2*%
%TO.N,GND*%
X143390000Y-118100000D03*
%TD*%
D26*
%TO.P,S2,A1,NO_1*%
%TO.N,unconnected-(S2-NO_1-PadA1)*%
X136600000Y-123800000D03*
%TO.P,S2,B1,NO_2*%
%TO.N,Button_2*%
X150900000Y-123800000D03*
%TO.P,S2,C1,COM_1*%
%TO.N,+5V*%
X136600000Y-128800000D03*
%TO.P,S2,D1,COM_2*%
%TO.N,unconnected-(S2-COM_2-PadD1)*%
X150900000Y-128800000D03*
%TD*%
D38*
%TO.P,LS1,1,1*%
%TO.N,Buzzer*%
X158000000Y-125500000D03*
D39*
%TO.P,LS1,2,2*%
%TO.N,GND*%
X165600000Y-125500000D03*
%TD*%
D29*
%TO.P,C5,1*%
%TO.N,+5V*%
X141165000Y-96830000D03*
%TO.P,C5,2*%
%TO.N,GND*%
X139615000Y-96830000D03*
%TD*%
D40*
%TO.N,GND*%
X153500000Y-104550000D03*
X149470000Y-109220000D03*
X153500000Y-96540000D03*
X160180000Y-104300000D03*
X166350000Y-85142500D03*
X138990000Y-99800000D03*
X138500000Y-94980000D03*
X162960000Y-105690000D03*
X154470000Y-92120000D03*
X142670000Y-118085000D03*
X145740000Y-112760000D03*
X159550000Y-102730000D03*
X138830000Y-91560000D03*
X147610000Y-92860000D03*
X145670000Y-95920000D03*
X152060000Y-95910000D03*
X146840000Y-112420000D03*
X163350000Y-85152500D03*
X132735000Y-98690000D03*
X119790000Y-85770000D03*
X119980000Y-101270000D03*
X156710000Y-105890000D03*
X138840000Y-96860000D03*
X122400000Y-117920000D03*
X138980000Y-101390000D03*
X140780000Y-113610000D03*
X116200000Y-88390000D03*
X147280000Y-105180000D03*
X152150000Y-110330000D03*
X123820000Y-102910000D03*
X147500000Y-109020000D03*
X166270000Y-103420000D03*
X144220000Y-99760000D03*
%TO.N,Button_1*%
X140960000Y-116790000D03*
X138920000Y-116930000D03*
%TO.N,Button_2*%
X151399137Y-109040863D03*
X152376064Y-108173936D03*
%TO.N,RED_LED*%
X157280000Y-96600000D03*
X155391694Y-98117776D03*
%TO.N,GREEN_LED*%
X157850000Y-99910000D03*
X156166823Y-101974500D03*
%TO.N,a*%
X122000000Y-78790000D03*
X121820000Y-57220000D03*
%TO.N,b*%
X115067458Y-66300000D03*
X115220000Y-68530000D03*
%TO.N,Net-(U1-f)*%
X142420000Y-67340000D03*
X147970000Y-61048900D03*
X133824958Y-73005042D03*
X146980000Y-62251100D03*
%TO.N,Net-(U1-DPX)*%
X145770000Y-77800000D03*
X145740000Y-76228000D03*
%TO.N,+5V*%
X129970000Y-97130500D03*
X152540000Y-101151100D03*
X140440000Y-95640000D03*
X152573442Y-97866558D03*
X134670000Y-96500000D03*
X134638744Y-98522330D03*
X136410000Y-96190000D03*
X129890000Y-98980000D03*
%TO.N,Dig3*%
X149800000Y-97930000D03*
X153168708Y-61048900D03*
%TO.N,Dig2*%
X150440000Y-62251100D03*
X155250415Y-102124501D03*
X157480000Y-95000000D03*
X150500000Y-61048900D03*
%TO.N,Dig1*%
X146920000Y-64830000D03*
X143040000Y-60820000D03*
%TO.N,SH_CP*%
X141910000Y-93300000D03*
X134350000Y-90380000D03*
%TO.N,ST_CP*%
X149930000Y-100330000D03*
X138605000Y-92745000D03*
%TO.N,DS*%
X142650000Y-91800000D03*
X146220000Y-97231700D03*
%TO.N,RST*%
X143740000Y-109440000D03*
X144680000Y-108073100D03*
%TO.N,MISO*%
X140779037Y-106850963D03*
X141660963Y-105889037D03*
%TO.N,SCK*%
X140400000Y-102900000D03*
X141775963Y-103435963D03*
%TO.N,MOSI*%
X139007130Y-102299069D03*
X141005963Y-104205963D03*
%TO.N,Net-(J4-Pin_5)*%
X163410500Y-108220000D03*
X164720000Y-108210000D03*
%TO.N,RX*%
X162365963Y-108985963D03*
X161004037Y-108504037D03*
%TO.N,/AREF*%
X144030000Y-93770000D03*
X146318258Y-93779665D03*
%TD*%
D41*
%TO.N,GND*%
X138865000Y-91595000D02*
X138830000Y-91560000D01*
X145740000Y-112760000D02*
X145740000Y-111985000D01*
X119975000Y-101265000D02*
X119980000Y-101270000D01*
X119986526Y-85770000D02*
X119995526Y-85779000D01*
X154480000Y-92130000D02*
X154470000Y-92120000D01*
X116200000Y-88390000D02*
X116189000Y-88379000D01*
X159570000Y-102710000D02*
X159550000Y-102730000D01*
X160190000Y-104310000D02*
X160180000Y-104300000D01*
X132725000Y-98680000D02*
X132735000Y-98690000D01*
X116189000Y-88379000D02*
X115137500Y-88379000D01*
X152060000Y-94850000D02*
X152060000Y-95910000D01*
X142685000Y-118100000D02*
X142670000Y-118085000D01*
X147260000Y-105200000D02*
X147280000Y-105180000D01*
X131755000Y-98680000D02*
X132725000Y-98680000D01*
X119790000Y-85770000D02*
X119986526Y-85770000D01*
X166360000Y-85132500D02*
X166350000Y-85142500D01*
X152140000Y-110320000D02*
X152150000Y-110330000D01*
X160190000Y-105060000D02*
X160190000Y-104310000D01*
X146870000Y-112450000D02*
X147760000Y-112450000D01*
X146840000Y-112420000D02*
X146870000Y-112450000D01*
X140760000Y-113630000D02*
X140780000Y-113610000D01*
X154480000Y-92930000D02*
X154480000Y-92130000D01*
X147520000Y-108220000D02*
X147520000Y-109000000D01*
X139615000Y-96830000D02*
X138870000Y-96830000D01*
X154560000Y-104550000D02*
X153500000Y-104550000D01*
X145660000Y-95910000D02*
X145660000Y-94850000D01*
X138510000Y-94990000D02*
X138500000Y-94980000D01*
X166360000Y-84327500D02*
X166360000Y-85132500D01*
X124625000Y-102900000D02*
X123830000Y-102900000D01*
X149460000Y-110250000D02*
X149460000Y-109230000D01*
X166270000Y-104190000D02*
X166270000Y-103420000D01*
X151360000Y-110320000D02*
X152140000Y-110320000D01*
X139745000Y-99800000D02*
X138990000Y-99800000D01*
X145740000Y-111985000D02*
X145730000Y-111975000D01*
X139350000Y-94990000D02*
X138510000Y-94990000D01*
X123830000Y-102900000D02*
X123820000Y-102910000D01*
X154560000Y-96550000D02*
X153510000Y-96550000D01*
X119975000Y-100700000D02*
X119975000Y-101265000D01*
X163360000Y-84337500D02*
X163360000Y-85142500D01*
X138870000Y-96830000D02*
X138840000Y-96860000D01*
X140760000Y-114275000D02*
X140760000Y-113630000D01*
X143160000Y-99750000D02*
X144210000Y-99750000D01*
X139755000Y-101380000D02*
X138990000Y-101380000D01*
X123140000Y-117940000D02*
X122420000Y-117940000D01*
X144210000Y-99750000D02*
X144220000Y-99760000D01*
X146835000Y-92860000D02*
X147610000Y-92860000D01*
X143390000Y-118100000D02*
X142685000Y-118100000D01*
X145670000Y-95920000D02*
X145660000Y-95910000D01*
X122420000Y-117940000D02*
X122400000Y-117920000D01*
X147260000Y-106250000D02*
X147260000Y-105200000D01*
X138990000Y-101380000D02*
X138980000Y-101390000D01*
X162960000Y-104712500D02*
X162960000Y-105690000D01*
X156710000Y-105110000D02*
X156710000Y-105890000D01*
X160305000Y-102710000D02*
X159570000Y-102710000D01*
X153510000Y-96550000D02*
X153500000Y-96540000D01*
X139660000Y-91595000D02*
X138865000Y-91595000D01*
X163360000Y-85142500D02*
X163350000Y-85152500D01*
X149460000Y-109230000D02*
X149470000Y-109220000D01*
X147520000Y-109000000D02*
X147500000Y-109020000D01*
D42*
%TO.N,Net-(D1-A)*%
X163360000Y-88077500D02*
X163400000Y-88117500D01*
X163360000Y-86212500D02*
X163360000Y-88077500D01*
%TO.N,Net-(D2-A)*%
X166350000Y-86212500D02*
X166360000Y-86202500D01*
X166350000Y-88117500D02*
X166350000Y-86212500D01*
D43*
%TO.N,Buzzer*%
X170640000Y-101680000D02*
X169870000Y-100910000D01*
X155405000Y-101350000D02*
X154560000Y-101350000D01*
X169870000Y-100910000D02*
X155845000Y-100910000D01*
X155845000Y-100910000D02*
X155405000Y-101350000D01*
X170640000Y-112860000D02*
X170640000Y-101680000D01*
X158000000Y-125500000D02*
X170640000Y-112860000D01*
D42*
%TO.N,Button_1*%
X140960000Y-116790000D02*
X148430000Y-116790000D01*
X132050000Y-123800000D02*
X138920000Y-116930000D01*
X130650000Y-123800000D02*
X124790000Y-117940000D01*
X152910000Y-109629800D02*
X150460000Y-107179800D01*
X148430000Y-116790000D02*
X152910000Y-112310000D01*
X150460000Y-107179800D02*
X150460000Y-106250000D01*
X130700000Y-123800000D02*
X130650000Y-123800000D01*
X130700000Y-123800000D02*
X132050000Y-123800000D01*
X152910000Y-112310000D02*
X152910000Y-109629800D01*
%TO.N,Button_2*%
X149660000Y-107301726D02*
X149660000Y-106250000D01*
X150740000Y-123800000D02*
X145040000Y-118100000D01*
X153420000Y-109217872D02*
X152376064Y-108173936D01*
X145040000Y-118100000D02*
X147833896Y-118100000D01*
X150900000Y-123800000D02*
X150740000Y-123800000D01*
X151399137Y-109040863D02*
X149660000Y-107301726D01*
X147833896Y-118100000D02*
X153420000Y-112513896D01*
X153420000Y-112513896D02*
X153420000Y-109217872D01*
D44*
%TO.N,RED_LED*%
X157280000Y-96062500D02*
X163400000Y-89942500D01*
X154560000Y-98150000D02*
X155359470Y-98150000D01*
X157280000Y-96600000D02*
X157280000Y-96062500D01*
X155359470Y-98150000D02*
X155391694Y-98117776D01*
%TO.N,GREEN_LED*%
X157930791Y-99910000D02*
X166350000Y-91490791D01*
X157850000Y-99910000D02*
X157930791Y-99910000D01*
X156166823Y-102058177D02*
X156166823Y-101974500D01*
X166350000Y-91490791D02*
X166350000Y-89942500D01*
X154560000Y-102950000D02*
X155275000Y-102950000D01*
X155275000Y-102950000D02*
X156166823Y-102058177D01*
%TO.N,a*%
X119655000Y-57220000D02*
X121820000Y-57220000D01*
X122000000Y-78790000D02*
X122000000Y-84180000D01*
X118175000Y-58700000D02*
X119655000Y-57220000D01*
X122000000Y-84180000D02*
X121705000Y-84475000D01*
X121705000Y-84475000D02*
X120862500Y-84475000D01*
%TO.N,Net-(U1-a)*%
X120000000Y-58700000D02*
X142552500Y-58700000D01*
X142552500Y-58700000D02*
X144390000Y-60537500D01*
%TO.N,b*%
X115220000Y-68530000D02*
X115220000Y-83742500D01*
X115067458Y-64757542D02*
X118175000Y-61650000D01*
X115067458Y-66300000D02*
X115067458Y-64757542D01*
X115220000Y-83742500D02*
X115137500Y-83825000D01*
%TO.N,Net-(U1-b)*%
X153437500Y-61650000D02*
X154550000Y-60537500D01*
X120000000Y-61650000D02*
X153437500Y-61650000D01*
%TO.N,c*%
X118175000Y-64600000D02*
X113860000Y-68915000D01*
X113860000Y-68915000D02*
X113860000Y-84080000D01*
X113860000Y-84080000D02*
X114255000Y-84475000D01*
X114255000Y-84475000D02*
X115137500Y-84475000D01*
%TO.N,Net-(U1-c)*%
X138292500Y-64600000D02*
X149470000Y-75777500D01*
X120000000Y-64600000D02*
X138292500Y-64600000D01*
%TO.N,d*%
X116534700Y-84383248D02*
X115792948Y-85125000D01*
X118147500Y-67320000D02*
X116123800Y-69343700D01*
X116534700Y-80710410D02*
X116534700Y-84383248D01*
X115792948Y-85125000D02*
X115137500Y-85125000D01*
X116123800Y-80299510D02*
X116534700Y-80710410D01*
X116123800Y-69343700D02*
X116123800Y-80299510D01*
%TO.N,Net-(U1-d)*%
X119972500Y-67320000D02*
X135932500Y-67320000D01*
X135932500Y-67320000D02*
X144390000Y-75777500D01*
%TO.N,e*%
X118147500Y-70270000D02*
X116527000Y-71890500D01*
X116527000Y-80132500D02*
X116937900Y-80543400D01*
X116937900Y-80543400D02*
X116937900Y-84632100D01*
X116937900Y-84632100D02*
X115795000Y-85775000D01*
X115795000Y-85775000D02*
X115137500Y-85775000D01*
X116527000Y-71890500D02*
X116527000Y-80132500D01*
%TO.N,Net-(U1-e)*%
X137447500Y-75777500D02*
X141850000Y-75777500D01*
X119972500Y-70270000D02*
X131940000Y-70270000D01*
X131940000Y-70270000D02*
X137447500Y-75777500D01*
%TO.N,f*%
X116930200Y-79965490D02*
X117341100Y-80376390D01*
X116930200Y-74437300D02*
X116930200Y-79965490D01*
X117341100Y-80376390D02*
X117341100Y-84958690D01*
X117341100Y-84958690D02*
X115874790Y-86425000D01*
X115874790Y-86425000D02*
X115137500Y-86425000D01*
X118147500Y-73220000D02*
X116930200Y-74437300D01*
%TO.N,Net-(U1-f)*%
X147441400Y-61048900D02*
X146930000Y-60537500D01*
X119972500Y-73220000D02*
X133610000Y-73220000D01*
X146980000Y-62780000D02*
X146980000Y-62251100D01*
X147970000Y-61048900D02*
X147441400Y-61048900D01*
X133610000Y-73220000D02*
X133824958Y-73005042D01*
X146930000Y-62830000D02*
X146980000Y-62780000D01*
X142420000Y-67340000D02*
X146930000Y-62830000D01*
%TO.N,g*%
X117744300Y-85125700D02*
X115795000Y-87075000D01*
X115795000Y-87075000D02*
X115137500Y-87075000D01*
X117333400Y-76984100D02*
X117333400Y-79798480D01*
X117744300Y-80209380D02*
X117744300Y-85125700D01*
X117333400Y-79798480D02*
X117744300Y-80209380D01*
X118147500Y-76170000D02*
X117333400Y-76984100D01*
%TO.N,Net-(U1-g)*%
X150958400Y-76829100D02*
X152010000Y-75777500D01*
X122139100Y-76829100D02*
X150958400Y-76829100D01*
X122130000Y-76820000D02*
X122139100Y-76829100D01*
X119972500Y-76170000D02*
X120622500Y-76820000D01*
X120622500Y-76820000D02*
X122130000Y-76820000D01*
%TO.N,dp*%
X118147500Y-85591709D02*
X116014209Y-87725000D01*
X118147500Y-79120000D02*
X118147500Y-85591709D01*
X116014209Y-87725000D02*
X115137500Y-87725000D01*
%TO.N,Net-(U1-DPX)*%
X119972500Y-79120000D02*
X121292500Y-77800000D01*
X121292500Y-77800000D02*
X145770000Y-77800000D01*
X146479500Y-76228000D02*
X146930000Y-75777500D01*
X145740000Y-76228000D02*
X146479500Y-76228000D01*
D42*
%TO.N,+5V*%
X140000000Y-125400000D02*
X136600000Y-128800000D01*
X120135210Y-87725000D02*
X119137600Y-86727390D01*
X161855000Y-103590000D02*
X163171751Y-103590000D01*
X145970000Y-108220000D02*
X144982633Y-109207367D01*
X144872400Y-100567400D02*
X144089800Y-101350000D01*
X144089800Y-101350000D02*
X143160000Y-101350000D01*
X125312390Y-91447600D02*
X121589790Y-87725000D01*
X141250000Y-94990000D02*
X141250000Y-96745000D01*
X121589790Y-87725000D02*
X120862500Y-87725000D01*
X161855000Y-102710000D02*
X161855000Y-103590000D01*
X152540000Y-101151100D02*
X152540000Y-102659800D01*
X152930000Y-94780000D02*
X152860000Y-94850000D01*
X161855000Y-103590000D02*
X161855000Y-104557500D01*
X152930000Y-92930000D02*
X152930000Y-94780000D01*
X144860000Y-96579800D02*
X144089800Y-97350000D01*
X152860000Y-96032633D02*
X152860000Y-94850000D01*
X142460000Y-107610000D02*
X139200000Y-104350000D01*
X120085000Y-83825000D02*
X120862500Y-83825000D01*
X144872400Y-96592200D02*
X144872400Y-100567400D01*
X144860000Y-93285000D02*
X144860000Y-94850000D01*
X142369790Y-97350000D02*
X143160000Y-97350000D01*
X141250000Y-96745000D02*
X141165000Y-96830000D01*
X140000000Y-116589800D02*
X140000000Y-125400000D01*
X141849790Y-96830000D02*
X142369790Y-97350000D01*
D43*
X163910000Y-104712500D02*
X163910000Y-104328249D01*
D42*
X134670000Y-96500000D02*
X134670000Y-93550000D01*
X129970000Y-94567500D02*
X131037500Y-93500000D01*
X130425000Y-102900000D02*
X129890000Y-102365000D01*
X141250000Y-94990000D02*
X141090000Y-94990000D01*
X161855000Y-104557500D02*
X162010000Y-104712500D01*
X144860000Y-94850000D02*
X144860000Y-96579800D01*
D43*
X135620000Y-132440000D02*
X136600000Y-131460000D01*
D42*
X131037500Y-93500000D02*
X134620000Y-93500000D01*
X145285000Y-92860000D02*
X144860000Y-93285000D01*
X144430000Y-109207367D02*
X144430000Y-112159800D01*
D43*
X120040000Y-132440000D02*
X135620000Y-132440000D01*
D42*
X129890000Y-102365000D02*
X129890000Y-98980000D01*
X163910000Y-104289499D02*
X163910000Y-104712500D01*
X125312390Y-91447600D02*
X128985100Y-91447600D01*
X156710000Y-103560000D02*
X161825000Y-103560000D01*
X134670000Y-93550000D02*
X134620000Y-93500000D01*
X141090000Y-94990000D02*
X140440000Y-95640000D01*
X156520000Y-103750000D02*
X156710000Y-103560000D01*
X146460000Y-107730000D02*
X146460000Y-106250000D01*
X144430000Y-112159800D02*
X140000000Y-116589800D01*
X136410000Y-96190000D02*
X134980000Y-96190000D01*
X152312833Y-96579800D02*
X152312833Y-97605949D01*
X134980000Y-96190000D02*
X134670000Y-96500000D01*
X128985100Y-91447600D02*
X131037500Y-93500000D01*
X142460000Y-108725000D02*
X143947633Y-108725000D01*
X134481074Y-98680000D02*
X134638744Y-98522330D01*
X162010000Y-104712500D02*
X162010000Y-104565000D01*
X119137600Y-86727390D02*
X119137600Y-84772400D01*
D43*
X163910000Y-104328249D02*
X163306751Y-103725000D01*
D42*
X143947633Y-108725000D02*
X144430000Y-109207367D01*
X145970000Y-108220000D02*
X146460000Y-107730000D01*
X141305000Y-101380000D02*
X141305000Y-102917633D01*
X152312833Y-97605949D02*
X152573442Y-97866558D01*
X119137600Y-84772400D02*
X120085000Y-83825000D01*
X152540000Y-102659800D02*
X153630200Y-103750000D01*
D43*
X116400000Y-128800000D02*
X120040000Y-132440000D01*
D42*
X142460000Y-108725000D02*
X142460000Y-107610000D01*
X143130000Y-101380000D02*
X143160000Y-101350000D01*
X141165000Y-96830000D02*
X141849790Y-96830000D01*
X154560000Y-103750000D02*
X156520000Y-103750000D01*
X134030000Y-98680000D02*
X134481074Y-98680000D01*
X120862500Y-87725000D02*
X120135210Y-87725000D01*
X152312833Y-96579800D02*
X152860000Y-96032633D01*
X141305000Y-102917633D02*
X139872633Y-104350000D01*
X161825000Y-103560000D02*
X161855000Y-103590000D01*
X144860000Y-96579800D02*
X144872400Y-96592200D01*
X144089800Y-97350000D02*
X143160000Y-97350000D01*
X163171751Y-103590000D02*
X163306751Y-103725000D01*
X141305000Y-101380000D02*
X143130000Y-101380000D01*
X144982633Y-109207367D02*
X144430000Y-109207367D01*
X129970000Y-97130500D02*
X129970000Y-94567500D01*
X139872633Y-104350000D02*
X139200000Y-104350000D01*
D43*
X136600000Y-131460000D02*
X136600000Y-128800000D01*
D42*
X144860000Y-96579800D02*
X152312833Y-96579800D01*
X153630200Y-103750000D02*
X154560000Y-103750000D01*
D44*
%TO.N,Dig4*%
X156350000Y-77577500D02*
X156350000Y-98113200D01*
X154550000Y-75777500D02*
X156350000Y-77577500D01*
X155513200Y-98950000D02*
X154560000Y-98950000D01*
X156350000Y-98113200D02*
X155513200Y-98950000D01*
%TO.N,Dig3*%
X149800000Y-97930000D02*
X144860000Y-102870000D01*
X144860000Y-102870000D02*
X144860000Y-106250000D01*
X152521400Y-61048900D02*
X152010000Y-60537500D01*
X153168708Y-61048900D02*
X152521400Y-61048900D01*
%TO.N,Dig2*%
X155250415Y-102124501D02*
X154585499Y-102124501D01*
X156951600Y-94471600D02*
X157480000Y-95000000D01*
X149988600Y-60537500D02*
X150500000Y-61048900D01*
X149470000Y-60537500D02*
X149988600Y-60537500D01*
X154585499Y-102124501D02*
X154560000Y-102150000D01*
X150440000Y-62251100D02*
X156951600Y-68762700D01*
X156951600Y-68762700D02*
X156951600Y-94471600D01*
%TO.N,Dig1*%
X155727657Y-78442344D02*
X153061600Y-75776287D01*
X155727657Y-97101972D02*
X155727657Y-78442344D01*
X142132500Y-60820000D02*
X141850000Y-60537500D01*
X154560000Y-97350000D02*
X155479629Y-97350000D01*
X153061600Y-70971600D02*
X146920000Y-64830000D01*
X155479629Y-97350000D02*
X155727657Y-97101972D01*
X143040000Y-60820000D02*
X142132500Y-60820000D01*
X153061600Y-75776287D02*
X153061600Y-70971600D01*
%TO.N,SH_CP*%
X134350000Y-90380000D02*
X134350000Y-89698100D01*
X134350000Y-89698100D02*
X131726900Y-87075000D01*
X143160000Y-96550000D02*
X143160000Y-94550000D01*
X131726900Y-87075000D02*
X120862500Y-87075000D01*
X143160000Y-94550000D02*
X141910000Y-93300000D01*
%TO.N,ST_CP*%
X150150000Y-100550000D02*
X154560000Y-100550000D01*
X149930000Y-100330000D02*
X150150000Y-100550000D01*
X132285000Y-86425000D02*
X120862500Y-86425000D01*
X138605000Y-92745000D02*
X132285000Y-86425000D01*
%TO.N,DS*%
X154560000Y-99750000D02*
X153606800Y-99750000D01*
X153606800Y-99750000D02*
X151088500Y-97231700D01*
X151088500Y-97231700D02*
X146220000Y-97231700D01*
X135975000Y-85125000D02*
X142650000Y-91800000D01*
X120862500Y-85125000D02*
X135975000Y-85125000D01*
D43*
%TO.N,XTAL2*%
X148295000Y-109715000D02*
X148295000Y-107155000D01*
X148295000Y-107155000D02*
X148060000Y-106920000D01*
X148060000Y-106920000D02*
X148060000Y-106250000D01*
X147760000Y-110250000D02*
X148295000Y-109715000D01*
X147760000Y-110250000D02*
X145905000Y-110250000D01*
X145905000Y-110250000D02*
X145730000Y-110425000D01*
%TO.N,XTAL1*%
X151360000Y-111870000D02*
X150385000Y-110895000D01*
X150385000Y-110895000D02*
X150385000Y-108701872D01*
X150385000Y-108701872D02*
X148860000Y-107176872D01*
X150780000Y-112450000D02*
X151360000Y-111870000D01*
X149460000Y-112450000D02*
X150780000Y-112450000D01*
X148860000Y-107176872D02*
X148860000Y-106250000D01*
D42*
%TO.N,RST*%
X142805000Y-110375000D02*
X142460000Y-110375000D01*
X134120000Y-106890000D02*
X137805000Y-110575000D01*
X144680000Y-108073100D02*
X145660000Y-107093100D01*
X145660000Y-107093100D02*
X145660000Y-106250000D01*
X140960000Y-110375000D02*
X140760000Y-110575000D01*
X137805000Y-110575000D02*
X140760000Y-110575000D01*
X143740000Y-109440000D02*
X142805000Y-110375000D01*
X142460000Y-110375000D02*
X140960000Y-110375000D01*
%TO.N,Net-(U5-BP)*%
X162010000Y-106987500D02*
X160567500Y-106987500D01*
X160567500Y-106987500D02*
X160190000Y-106610000D01*
%TO.N,+3.3V*%
X166270000Y-105740000D02*
X166270000Y-107340000D01*
X164062400Y-111447600D02*
X162860000Y-112650000D01*
X164272500Y-107350000D02*
X163910000Y-106987500D01*
X162860000Y-112650000D02*
X160320000Y-112650000D01*
X166260000Y-107350000D02*
X164272500Y-107350000D01*
X164062400Y-107139900D02*
X164062400Y-111447600D01*
X166270000Y-107340000D02*
X166260000Y-107350000D01*
D43*
X157780000Y-112650000D02*
X160320000Y-112650000D01*
D44*
%TO.N,Net-(J1-D-)*%
X119975000Y-98300000D02*
X124055000Y-98300000D01*
X124055000Y-98300000D02*
X124435000Y-97920000D01*
%TO.N,Net-(J1-D+)*%
X124050000Y-99100000D02*
X124450000Y-99500000D01*
X119975000Y-99100000D02*
X124050000Y-99100000D01*
D42*
%TO.N,MISO*%
X140740000Y-106890000D02*
X140779037Y-106850963D01*
X141820963Y-105889037D02*
X143160000Y-104550000D01*
X139200000Y-106890000D02*
X140740000Y-106890000D01*
X141660963Y-105889037D02*
X141820963Y-105889037D01*
D44*
%TO.N,SCK*%
X137811600Y-104109791D02*
X137811600Y-105738400D01*
X143160000Y-102950000D02*
X142261926Y-102950000D01*
X137811600Y-105738400D02*
X136660000Y-106890000D01*
X140400000Y-102900000D02*
X139021391Y-102900000D01*
X139021391Y-102900000D02*
X137811600Y-104109791D01*
X142261926Y-102950000D02*
X141775963Y-103435963D01*
%TO.N,MOSI*%
X141875837Y-104205963D02*
X141005963Y-104205963D01*
X143160000Y-103750000D02*
X142331800Y-103750000D01*
X139007130Y-102299069D02*
X138710931Y-102299069D01*
X142331800Y-103750000D02*
X141875837Y-104205963D01*
X138710931Y-102299069D02*
X136660000Y-104350000D01*
D43*
%TO.N,TX*%
X151335000Y-107325000D02*
X151260000Y-107250000D01*
X151260000Y-107250000D02*
X151260000Y-106250000D01*
X152440000Y-107325000D02*
X151335000Y-107325000D01*
X155240000Y-112650000D02*
X154065000Y-111475000D01*
X154065000Y-111475000D02*
X154065000Y-108950000D01*
X154065000Y-108950000D02*
X152440000Y-107325000D01*
D42*
%TO.N,Net-(J4-Pin_5)*%
X166260000Y-109000000D02*
X165510000Y-109000000D01*
X163410500Y-108220000D02*
X162210000Y-108220000D01*
X162210000Y-108220000D02*
X160320000Y-110110000D01*
X165510000Y-109000000D02*
X164720000Y-108210000D01*
D43*
%TO.N,RX*%
X153460000Y-105175000D02*
X152135000Y-105175000D01*
X156789037Y-108504037D02*
X153460000Y-105175000D01*
X161004037Y-108504037D02*
X156789037Y-108504037D01*
X162860000Y-110110000D02*
X162860000Y-109480000D01*
X152060000Y-105250000D02*
X152060000Y-106250000D01*
X162860000Y-109480000D02*
X162365963Y-108985963D01*
X152135000Y-105175000D02*
X152060000Y-105250000D01*
D45*
%TO.N,USB_CONN_D+*%
X130305001Y-98180001D02*
X130792500Y-98667500D01*
X130792500Y-99016396D02*
X131056104Y-99280000D01*
X131056104Y-99280000D02*
X131405000Y-99280000D01*
X130792500Y-98667500D02*
X130792500Y-99016396D01*
X126100000Y-99500000D02*
X127419999Y-98180001D01*
X131405000Y-99280000D02*
X131755000Y-99630000D01*
X127419999Y-98180001D02*
X130305001Y-98180001D01*
%TO.N,USB_CONN_D-*%
X126085000Y-97920000D02*
X127043603Y-97920000D01*
X127043603Y-97920000D02*
X127233603Y-97730000D01*
X127233603Y-97730000D02*
X131755000Y-97730000D01*
%TO.N,USB_D-*%
X142110000Y-97925000D02*
X142771397Y-97925000D01*
X142110000Y-97730000D02*
X142110000Y-97925000D01*
X142996397Y-98150000D02*
X143160000Y-98150000D01*
X142771397Y-97925000D02*
X142996397Y-98150000D01*
X134030000Y-97730000D02*
X142110000Y-97730000D01*
%TO.N,USB_D+*%
X135828895Y-98180001D02*
X141728632Y-98180001D01*
X134728896Y-99280000D02*
X135828895Y-98180001D01*
X142273631Y-98725000D02*
X142935000Y-98725000D01*
X141728632Y-98180001D02*
X142273631Y-98725000D01*
X134030000Y-99630000D02*
X134380000Y-99280000D01*
X134380000Y-99280000D02*
X134728896Y-99280000D01*
X142935000Y-98725000D02*
X143160000Y-98950000D01*
D42*
%TO.N,/UCAP*%
X141295000Y-99800000D02*
X142045000Y-100550000D01*
X142045000Y-100550000D02*
X143160000Y-100550000D01*
%TO.N,/AREF*%
X142907600Y-92647600D02*
X144030000Y-93770000D01*
X146318258Y-94708258D02*
X146460000Y-94850000D01*
X146318258Y-93779665D02*
X146318258Y-94708258D01*
X139660000Y-93145000D02*
X140157400Y-92647600D01*
X140157400Y-92647600D02*
X142907600Y-92647600D01*
%TO.N,Net-(D3-A)*%
X128600000Y-102900000D02*
X126500000Y-102900000D01*
%TO.N,Net-(J1-VBUS)*%
X119975000Y-97500000D02*
X122762500Y-97500000D01*
X122762500Y-97500000D02*
X126762500Y-93500000D01*
D43*
%TO.N,unconnected-(J1-Shield-Pad6)*%
X119875000Y-94650000D02*
X114425000Y-94650000D01*
X114425000Y-103550000D02*
X114425000Y-94650000D01*
X119875000Y-103550000D02*
X114425000Y-103550000D01*
%TD*%
M02*
