%TF.GenerationSoftware,KiCad,Pcbnew,7.0.1*%
%TF.CreationDate,2023-04-20T17:50:10-06:00*%
%TF.ProjectId,Phase_B_Prototype,50686173-655f-4425-9f50-726f746f7479,rev?*%
%TF.SameCoordinates,Original*%
%TF.FileFunction,Legend,Bot*%
%TF.FilePolarity,Positive*%
%FSLAX46Y46*%
G04 Gerber Fmt 4.6, Leading zero omitted, Abs format (unit mm)*
G04 Created by KiCad (PCBNEW 7.0.1) date 2023-04-20 17:50:10*
%MOMM*%
%LPD*%
G01*
G04 APERTURE LIST*
%ADD10C,0.150000*%
G04 APERTURE END LIST*
D10*
X175461904Y-57523809D02*
X175128571Y-57523809D01*
X174985714Y-58047619D02*
X175461904Y-58047619D01*
X175461904Y-58047619D02*
X175461904Y-57047619D01*
X175461904Y-57047619D02*
X174985714Y-57047619D01*
X174557142Y-58047619D02*
X174557142Y-57380952D01*
X174557142Y-57476190D02*
X174509523Y-57428571D01*
X174509523Y-57428571D02*
X174414285Y-57380952D01*
X174414285Y-57380952D02*
X174271428Y-57380952D01*
X174271428Y-57380952D02*
X174176190Y-57428571D01*
X174176190Y-57428571D02*
X174128571Y-57523809D01*
X174128571Y-57523809D02*
X174128571Y-58047619D01*
X174128571Y-57523809D02*
X174080952Y-57428571D01*
X174080952Y-57428571D02*
X173985714Y-57380952D01*
X173985714Y-57380952D02*
X173842857Y-57380952D01*
X173842857Y-57380952D02*
X173747618Y-57428571D01*
X173747618Y-57428571D02*
X173699999Y-57523809D01*
X173699999Y-57523809D02*
X173699999Y-58047619D01*
X173223809Y-58047619D02*
X173223809Y-57047619D01*
X173223809Y-57428571D02*
X173128571Y-57380952D01*
X173128571Y-57380952D02*
X172938095Y-57380952D01*
X172938095Y-57380952D02*
X172842857Y-57428571D01*
X172842857Y-57428571D02*
X172795238Y-57476190D01*
X172795238Y-57476190D02*
X172747619Y-57571428D01*
X172747619Y-57571428D02*
X172747619Y-57857142D01*
X172747619Y-57857142D02*
X172795238Y-57952380D01*
X172795238Y-57952380D02*
X172842857Y-58000000D01*
X172842857Y-58000000D02*
X172938095Y-58047619D01*
X172938095Y-58047619D02*
X173128571Y-58047619D01*
X173128571Y-58047619D02*
X173223809Y-58000000D01*
X171938095Y-58000000D02*
X172033333Y-58047619D01*
X172033333Y-58047619D02*
X172223809Y-58047619D01*
X172223809Y-58047619D02*
X172319047Y-58000000D01*
X172319047Y-58000000D02*
X172366666Y-57904761D01*
X172366666Y-57904761D02*
X172366666Y-57523809D01*
X172366666Y-57523809D02*
X172319047Y-57428571D01*
X172319047Y-57428571D02*
X172223809Y-57380952D01*
X172223809Y-57380952D02*
X172033333Y-57380952D01*
X172033333Y-57380952D02*
X171938095Y-57428571D01*
X171938095Y-57428571D02*
X171890476Y-57523809D01*
X171890476Y-57523809D02*
X171890476Y-57619047D01*
X171890476Y-57619047D02*
X172366666Y-57714285D01*
X171033333Y-58047619D02*
X171033333Y-57047619D01*
X171033333Y-58000000D02*
X171128571Y-58047619D01*
X171128571Y-58047619D02*
X171319047Y-58047619D01*
X171319047Y-58047619D02*
X171414285Y-58000000D01*
X171414285Y-58000000D02*
X171461904Y-57952380D01*
X171461904Y-57952380D02*
X171509523Y-57857142D01*
X171509523Y-57857142D02*
X171509523Y-57571428D01*
X171509523Y-57571428D02*
X171461904Y-57476190D01*
X171461904Y-57476190D02*
X171414285Y-57428571D01*
X171414285Y-57428571D02*
X171319047Y-57380952D01*
X171319047Y-57380952D02*
X171128571Y-57380952D01*
X171128571Y-57380952D02*
X171033333Y-57428571D01*
X170128571Y-58047619D02*
X170128571Y-57047619D01*
X170128571Y-58000000D02*
X170223809Y-58047619D01*
X170223809Y-58047619D02*
X170414285Y-58047619D01*
X170414285Y-58047619D02*
X170509523Y-58000000D01*
X170509523Y-58000000D02*
X170557142Y-57952380D01*
X170557142Y-57952380D02*
X170604761Y-57857142D01*
X170604761Y-57857142D02*
X170604761Y-57571428D01*
X170604761Y-57571428D02*
X170557142Y-57476190D01*
X170557142Y-57476190D02*
X170509523Y-57428571D01*
X170509523Y-57428571D02*
X170414285Y-57380952D01*
X170414285Y-57380952D02*
X170223809Y-57380952D01*
X170223809Y-57380952D02*
X170128571Y-57428571D01*
X169271428Y-58000000D02*
X169366666Y-58047619D01*
X169366666Y-58047619D02*
X169557142Y-58047619D01*
X169557142Y-58047619D02*
X169652380Y-58000000D01*
X169652380Y-58000000D02*
X169699999Y-57904761D01*
X169699999Y-57904761D02*
X169699999Y-57523809D01*
X169699999Y-57523809D02*
X169652380Y-57428571D01*
X169652380Y-57428571D02*
X169557142Y-57380952D01*
X169557142Y-57380952D02*
X169366666Y-57380952D01*
X169366666Y-57380952D02*
X169271428Y-57428571D01*
X169271428Y-57428571D02*
X169223809Y-57523809D01*
X169223809Y-57523809D02*
X169223809Y-57619047D01*
X169223809Y-57619047D02*
X169699999Y-57714285D01*
X168366666Y-58047619D02*
X168366666Y-57047619D01*
X168366666Y-58000000D02*
X168461904Y-58047619D01*
X168461904Y-58047619D02*
X168652380Y-58047619D01*
X168652380Y-58047619D02*
X168747618Y-58000000D01*
X168747618Y-58000000D02*
X168795237Y-57952380D01*
X168795237Y-57952380D02*
X168842856Y-57857142D01*
X168842856Y-57857142D02*
X168842856Y-57571428D01*
X168842856Y-57571428D02*
X168795237Y-57476190D01*
X168795237Y-57476190D02*
X168747618Y-57428571D01*
X168747618Y-57428571D02*
X168652380Y-57380952D01*
X168652380Y-57380952D02*
X168461904Y-57380952D01*
X168461904Y-57380952D02*
X168366666Y-57428571D01*
X167176189Y-58000000D02*
X167033332Y-58047619D01*
X167033332Y-58047619D02*
X166795237Y-58047619D01*
X166795237Y-58047619D02*
X166699999Y-58000000D01*
X166699999Y-58000000D02*
X166652380Y-57952380D01*
X166652380Y-57952380D02*
X166604761Y-57857142D01*
X166604761Y-57857142D02*
X166604761Y-57761904D01*
X166604761Y-57761904D02*
X166652380Y-57666666D01*
X166652380Y-57666666D02*
X166699999Y-57619047D01*
X166699999Y-57619047D02*
X166795237Y-57571428D01*
X166795237Y-57571428D02*
X166985713Y-57523809D01*
X166985713Y-57523809D02*
X167080951Y-57476190D01*
X167080951Y-57476190D02*
X167128570Y-57428571D01*
X167128570Y-57428571D02*
X167176189Y-57333333D01*
X167176189Y-57333333D02*
X167176189Y-57238095D01*
X167176189Y-57238095D02*
X167128570Y-57142857D01*
X167128570Y-57142857D02*
X167080951Y-57095238D01*
X167080951Y-57095238D02*
X166985713Y-57047619D01*
X166985713Y-57047619D02*
X166747618Y-57047619D01*
X166747618Y-57047619D02*
X166604761Y-57095238D01*
X166271427Y-57380952D02*
X166033332Y-58047619D01*
X165795237Y-57380952D02*
X166033332Y-58047619D01*
X166033332Y-58047619D02*
X166128570Y-58285714D01*
X166128570Y-58285714D02*
X166176189Y-58333333D01*
X166176189Y-58333333D02*
X166271427Y-58380952D01*
X165461903Y-58000000D02*
X165366665Y-58047619D01*
X165366665Y-58047619D02*
X165176189Y-58047619D01*
X165176189Y-58047619D02*
X165080951Y-58000000D01*
X165080951Y-58000000D02*
X165033332Y-57904761D01*
X165033332Y-57904761D02*
X165033332Y-57857142D01*
X165033332Y-57857142D02*
X165080951Y-57761904D01*
X165080951Y-57761904D02*
X165176189Y-57714285D01*
X165176189Y-57714285D02*
X165319046Y-57714285D01*
X165319046Y-57714285D02*
X165414284Y-57666666D01*
X165414284Y-57666666D02*
X165461903Y-57571428D01*
X165461903Y-57571428D02*
X165461903Y-57523809D01*
X165461903Y-57523809D02*
X165414284Y-57428571D01*
X165414284Y-57428571D02*
X165319046Y-57380952D01*
X165319046Y-57380952D02*
X165176189Y-57380952D01*
X165176189Y-57380952D02*
X165080951Y-57428571D01*
X164747617Y-57380952D02*
X164366665Y-57380952D01*
X164604760Y-57047619D02*
X164604760Y-57904761D01*
X164604760Y-57904761D02*
X164557141Y-58000000D01*
X164557141Y-58000000D02*
X164461903Y-58047619D01*
X164461903Y-58047619D02*
X164366665Y-58047619D01*
X163652379Y-58000000D02*
X163747617Y-58047619D01*
X163747617Y-58047619D02*
X163938093Y-58047619D01*
X163938093Y-58047619D02*
X164033331Y-58000000D01*
X164033331Y-58000000D02*
X164080950Y-57904761D01*
X164080950Y-57904761D02*
X164080950Y-57523809D01*
X164080950Y-57523809D02*
X164033331Y-57428571D01*
X164033331Y-57428571D02*
X163938093Y-57380952D01*
X163938093Y-57380952D02*
X163747617Y-57380952D01*
X163747617Y-57380952D02*
X163652379Y-57428571D01*
X163652379Y-57428571D02*
X163604760Y-57523809D01*
X163604760Y-57523809D02*
X163604760Y-57619047D01*
X163604760Y-57619047D02*
X164080950Y-57714285D01*
X163176188Y-58047619D02*
X163176188Y-57380952D01*
X163176188Y-57476190D02*
X163128569Y-57428571D01*
X163128569Y-57428571D02*
X163033331Y-57380952D01*
X163033331Y-57380952D02*
X162890474Y-57380952D01*
X162890474Y-57380952D02*
X162795236Y-57428571D01*
X162795236Y-57428571D02*
X162747617Y-57523809D01*
X162747617Y-57523809D02*
X162747617Y-58047619D01*
X162747617Y-57523809D02*
X162699998Y-57428571D01*
X162699998Y-57428571D02*
X162604760Y-57380952D01*
X162604760Y-57380952D02*
X162461903Y-57380952D01*
X162461903Y-57380952D02*
X162366664Y-57428571D01*
X162366664Y-57428571D02*
X162319045Y-57523809D01*
X162319045Y-57523809D02*
X162319045Y-58047619D01*
X161890474Y-58000000D02*
X161795236Y-58047619D01*
X161795236Y-58047619D02*
X161604760Y-58047619D01*
X161604760Y-58047619D02*
X161509522Y-58000000D01*
X161509522Y-58000000D02*
X161461903Y-57904761D01*
X161461903Y-57904761D02*
X161461903Y-57857142D01*
X161461903Y-57857142D02*
X161509522Y-57761904D01*
X161509522Y-57761904D02*
X161604760Y-57714285D01*
X161604760Y-57714285D02*
X161747617Y-57714285D01*
X161747617Y-57714285D02*
X161842855Y-57666666D01*
X161842855Y-57666666D02*
X161890474Y-57571428D01*
X161890474Y-57571428D02*
X161890474Y-57523809D01*
X161890474Y-57523809D02*
X161842855Y-57428571D01*
X161842855Y-57428571D02*
X161747617Y-57380952D01*
X161747617Y-57380952D02*
X161604760Y-57380952D01*
X161604760Y-57380952D02*
X161509522Y-57428571D01*
X175461904Y-59667619D02*
X175461904Y-58667619D01*
X174890476Y-59667619D02*
X175319047Y-59096190D01*
X174890476Y-58667619D02*
X175461904Y-59239047D01*
X174461904Y-59667619D02*
X174461904Y-59000952D01*
X174461904Y-58667619D02*
X174509523Y-58715238D01*
X174509523Y-58715238D02*
X174461904Y-58762857D01*
X174461904Y-58762857D02*
X174414285Y-58715238D01*
X174414285Y-58715238D02*
X174461904Y-58667619D01*
X174461904Y-58667619D02*
X174461904Y-58762857D01*
X174128571Y-59000952D02*
X173747619Y-59000952D01*
X173985714Y-58667619D02*
X173985714Y-59524761D01*
X173985714Y-59524761D02*
X173938095Y-59620000D01*
X173938095Y-59620000D02*
X173842857Y-59667619D01*
X173842857Y-59667619D02*
X173747619Y-59667619D01*
X172985714Y-59620000D02*
X173080952Y-59667619D01*
X173080952Y-59667619D02*
X173271428Y-59667619D01*
X173271428Y-59667619D02*
X173366666Y-59620000D01*
X173366666Y-59620000D02*
X173414285Y-59572380D01*
X173414285Y-59572380D02*
X173461904Y-59477142D01*
X173461904Y-59477142D02*
X173461904Y-59191428D01*
X173461904Y-59191428D02*
X173414285Y-59096190D01*
X173414285Y-59096190D02*
X173366666Y-59048571D01*
X173366666Y-59048571D02*
X173271428Y-59000952D01*
X173271428Y-59000952D02*
X173080952Y-59000952D01*
X173080952Y-59000952D02*
X172985714Y-59048571D01*
X172557142Y-59667619D02*
X172557142Y-58667619D01*
X172128571Y-59667619D02*
X172128571Y-59143809D01*
X172128571Y-59143809D02*
X172176190Y-59048571D01*
X172176190Y-59048571D02*
X172271428Y-59000952D01*
X172271428Y-59000952D02*
X172414285Y-59000952D01*
X172414285Y-59000952D02*
X172509523Y-59048571D01*
X172509523Y-59048571D02*
X172557142Y-59096190D01*
X171271428Y-59620000D02*
X171366666Y-59667619D01*
X171366666Y-59667619D02*
X171557142Y-59667619D01*
X171557142Y-59667619D02*
X171652380Y-59620000D01*
X171652380Y-59620000D02*
X171699999Y-59524761D01*
X171699999Y-59524761D02*
X171699999Y-59143809D01*
X171699999Y-59143809D02*
X171652380Y-59048571D01*
X171652380Y-59048571D02*
X171557142Y-59000952D01*
X171557142Y-59000952D02*
X171366666Y-59000952D01*
X171366666Y-59000952D02*
X171271428Y-59048571D01*
X171271428Y-59048571D02*
X171223809Y-59143809D01*
X171223809Y-59143809D02*
X171223809Y-59239047D01*
X171223809Y-59239047D02*
X171699999Y-59334285D01*
X170795237Y-59000952D02*
X170795237Y-59667619D01*
X170795237Y-59096190D02*
X170747618Y-59048571D01*
X170747618Y-59048571D02*
X170652380Y-59000952D01*
X170652380Y-59000952D02*
X170509523Y-59000952D01*
X170509523Y-59000952D02*
X170414285Y-59048571D01*
X170414285Y-59048571D02*
X170366666Y-59143809D01*
X170366666Y-59143809D02*
X170366666Y-59667619D01*
X169271427Y-58667619D02*
X168699999Y-58667619D01*
X168985713Y-59667619D02*
X168985713Y-58667619D01*
X168366665Y-59667619D02*
X168366665Y-59000952D01*
X168366665Y-58667619D02*
X168414284Y-58715238D01*
X168414284Y-58715238D02*
X168366665Y-58762857D01*
X168366665Y-58762857D02*
X168319046Y-58715238D01*
X168319046Y-58715238D02*
X168366665Y-58667619D01*
X168366665Y-58667619D02*
X168366665Y-58762857D01*
X167890475Y-59667619D02*
X167890475Y-59000952D01*
X167890475Y-59096190D02*
X167842856Y-59048571D01*
X167842856Y-59048571D02*
X167747618Y-59000952D01*
X167747618Y-59000952D02*
X167604761Y-59000952D01*
X167604761Y-59000952D02*
X167509523Y-59048571D01*
X167509523Y-59048571D02*
X167461904Y-59143809D01*
X167461904Y-59143809D02*
X167461904Y-59667619D01*
X167461904Y-59143809D02*
X167414285Y-59048571D01*
X167414285Y-59048571D02*
X167319047Y-59000952D01*
X167319047Y-59000952D02*
X167176190Y-59000952D01*
X167176190Y-59000952D02*
X167080951Y-59048571D01*
X167080951Y-59048571D02*
X167033332Y-59143809D01*
X167033332Y-59143809D02*
X167033332Y-59667619D01*
X166176190Y-59620000D02*
X166271428Y-59667619D01*
X166271428Y-59667619D02*
X166461904Y-59667619D01*
X166461904Y-59667619D02*
X166557142Y-59620000D01*
X166557142Y-59620000D02*
X166604761Y-59524761D01*
X166604761Y-59524761D02*
X166604761Y-59143809D01*
X166604761Y-59143809D02*
X166557142Y-59048571D01*
X166557142Y-59048571D02*
X166461904Y-59000952D01*
X166461904Y-59000952D02*
X166271428Y-59000952D01*
X166271428Y-59000952D02*
X166176190Y-59048571D01*
X166176190Y-59048571D02*
X166128571Y-59143809D01*
X166128571Y-59143809D02*
X166128571Y-59239047D01*
X166128571Y-59239047D02*
X166604761Y-59334285D01*
X165699999Y-59667619D02*
X165699999Y-59000952D01*
X165699999Y-59191428D02*
X165652380Y-59096190D01*
X165652380Y-59096190D02*
X165604761Y-59048571D01*
X165604761Y-59048571D02*
X165509523Y-59000952D01*
X165509523Y-59000952D02*
X165414285Y-59000952D01*
X175604761Y-60287619D02*
X175271428Y-61287619D01*
X175271428Y-61287619D02*
X174938095Y-60287619D01*
X174223809Y-61240000D02*
X174319047Y-61287619D01*
X174319047Y-61287619D02*
X174509523Y-61287619D01*
X174509523Y-61287619D02*
X174604761Y-61240000D01*
X174604761Y-61240000D02*
X174652380Y-61144761D01*
X174652380Y-61144761D02*
X174652380Y-60763809D01*
X174652380Y-60763809D02*
X174604761Y-60668571D01*
X174604761Y-60668571D02*
X174509523Y-60620952D01*
X174509523Y-60620952D02*
X174319047Y-60620952D01*
X174319047Y-60620952D02*
X174223809Y-60668571D01*
X174223809Y-60668571D02*
X174176190Y-60763809D01*
X174176190Y-60763809D02*
X174176190Y-60859047D01*
X174176190Y-60859047D02*
X174652380Y-60954285D01*
X173747618Y-61287619D02*
X173747618Y-60620952D01*
X173747618Y-60811428D02*
X173699999Y-60716190D01*
X173699999Y-60716190D02*
X173652380Y-60668571D01*
X173652380Y-60668571D02*
X173557142Y-60620952D01*
X173557142Y-60620952D02*
X173461904Y-60620952D01*
X173176189Y-61240000D02*
X173080951Y-61287619D01*
X173080951Y-61287619D02*
X172890475Y-61287619D01*
X172890475Y-61287619D02*
X172795237Y-61240000D01*
X172795237Y-61240000D02*
X172747618Y-61144761D01*
X172747618Y-61144761D02*
X172747618Y-61097142D01*
X172747618Y-61097142D02*
X172795237Y-61001904D01*
X172795237Y-61001904D02*
X172890475Y-60954285D01*
X172890475Y-60954285D02*
X173033332Y-60954285D01*
X173033332Y-60954285D02*
X173128570Y-60906666D01*
X173128570Y-60906666D02*
X173176189Y-60811428D01*
X173176189Y-60811428D02*
X173176189Y-60763809D01*
X173176189Y-60763809D02*
X173128570Y-60668571D01*
X173128570Y-60668571D02*
X173033332Y-60620952D01*
X173033332Y-60620952D02*
X172890475Y-60620952D01*
X172890475Y-60620952D02*
X172795237Y-60668571D01*
X172319046Y-61287619D02*
X172319046Y-60620952D01*
X172319046Y-60287619D02*
X172366665Y-60335238D01*
X172366665Y-60335238D02*
X172319046Y-60382857D01*
X172319046Y-60382857D02*
X172271427Y-60335238D01*
X172271427Y-60335238D02*
X172319046Y-60287619D01*
X172319046Y-60287619D02*
X172319046Y-60382857D01*
X171699999Y-61287619D02*
X171795237Y-61240000D01*
X171795237Y-61240000D02*
X171842856Y-61192380D01*
X171842856Y-61192380D02*
X171890475Y-61097142D01*
X171890475Y-61097142D02*
X171890475Y-60811428D01*
X171890475Y-60811428D02*
X171842856Y-60716190D01*
X171842856Y-60716190D02*
X171795237Y-60668571D01*
X171795237Y-60668571D02*
X171699999Y-60620952D01*
X171699999Y-60620952D02*
X171557142Y-60620952D01*
X171557142Y-60620952D02*
X171461904Y-60668571D01*
X171461904Y-60668571D02*
X171414285Y-60716190D01*
X171414285Y-60716190D02*
X171366666Y-60811428D01*
X171366666Y-60811428D02*
X171366666Y-61097142D01*
X171366666Y-61097142D02*
X171414285Y-61192380D01*
X171414285Y-61192380D02*
X171461904Y-61240000D01*
X171461904Y-61240000D02*
X171557142Y-61287619D01*
X171557142Y-61287619D02*
X171699999Y-61287619D01*
X170938094Y-60620952D02*
X170938094Y-61287619D01*
X170938094Y-60716190D02*
X170890475Y-60668571D01*
X170890475Y-60668571D02*
X170795237Y-60620952D01*
X170795237Y-60620952D02*
X170652380Y-60620952D01*
X170652380Y-60620952D02*
X170557142Y-60668571D01*
X170557142Y-60668571D02*
X170509523Y-60763809D01*
X170509523Y-60763809D02*
X170509523Y-61287619D01*
X168747618Y-61287619D02*
X169319046Y-61287619D01*
X169033332Y-61287619D02*
X169033332Y-60287619D01*
X169033332Y-60287619D02*
X169128570Y-60430476D01*
X169128570Y-60430476D02*
X169223808Y-60525714D01*
X169223808Y-60525714D02*
X169319046Y-60573333D01*
M02*
