M48
; DRILL file {KiCad 7.0.1} date Thu Apr 20 13:04:26 2023
; FORMAT={-:-/ absolute / inch / decimal}
; #@! TF.CreationDate,2023-04-20T13:04:26-06:00
; #@! TF.GenerationSoftware,Kicad,Pcbnew,7.0.1
; #@! TF.FileFunction,Plated,1,2,PTH
FMAT,2
INCH
; #@! TA.AperFunction,Plated,PTH,ViaDrill
T1C0.0157
; #@! TA.AperFunction,Plated,PTH,ComponentDrill
T2C0.0394
%
G90
G05
T1
X4.5302Y-2.6102
X4.5362Y-2.698
X4.5748Y-3.4799
X4.7161Y-3.3768
X4.7236Y-3.987
X4.7961Y-2.2528
X4.8031Y-3.102
X4.8189Y-4.6425
X4.8748Y-4.0516
X5.1138Y-3.8969
X5.1169Y-3.824
X5.2258Y-3.8854
X5.2687Y-2.8742
X5.2894Y-3.5583
X5.3007Y-3.8788
X5.302Y-3.7992
X5.3705Y-3.787
X5.4528Y-3.7394
X5.4569Y-3.6514
X5.4657Y-3.6047
X5.4661Y-3.8134
X5.4693Y-4.6035
X5.4717Y-3.9917
X5.472Y-3.9291
X5.4727Y-4.0275
X5.5276Y-4.0512
X5.5291Y-3.7654
X5.5425Y-4.2067
X5.5425Y-4.4728
X5.5496Y-4.598
X5.5514Y-4.1026
X5.5772Y-4.1689
X5.5817Y-4.0723
X5.587Y-3.6732
X5.6071Y-2.6512
X5.6161Y-3.6142
X5.6169Y-4.649
X5.6315Y-2.3945
X5.6591Y-4.3087
X5.6705Y-3.6917
X5.678Y-3.9276
X5.6961Y-4.2548
X5.735Y-3.7764
X5.7378Y-3.0011
X5.7378Y-4.4394
X5.739Y-3.063
X5.7567Y-3.828
X5.7606Y-3.6921
X5.7811Y-4.426
X5.7843Y-2.5524
X5.7866Y-2.4508
X5.7984Y-4.1409
X5.8071Y-4.2921
X5.8114Y-3.6559
X5.8256Y-2.4035
X5.8846Y-4.3
X5.8976Y-3.8555
X5.9028Y-3.95
X5.9228Y-2.4508
X5.9252Y-2.4035
X5.9606Y-4.2929
X5.9866Y-3.776
X5.9902Y-4.3437
X5.9991Y-4.2588
X6.0055Y-3.9823
X6.0068Y-3.853
X6.0303Y-2.4035
X6.0433Y-3.8008
X6.0433Y-4.1161
X6.0815Y-3.6268
X6.1122Y-4.0206
X6.1178Y-3.8629
X6.1483Y-4.0147
X6.1697Y-4.1689
X6.1921Y-3.8031
X6.2Y-3.7402
X6.2146Y-3.9335
X6.2815Y-4.0445
X6.3063Y-4.1063
X6.3387Y-4.2718
X6.3924Y-4.2908
X6.4157Y-4.161
X6.4311Y-3.3525
X6.4335Y-4.2606
X6.485Y-4.2602
X6.5461Y-4.0717
X6.5492Y-3.3521
T2
X5.2803Y-4.1083
X5.2803Y-4.2083
X5.3803Y-4.1083
X5.3803Y-4.2083
X5.4803Y-4.1083
X5.4803Y-4.2083
X5.5846Y-2.3834
X5.5846Y-2.9834
X5.6846Y-2.3834
X5.6846Y-2.9834
X5.7846Y-2.3834
X5.7846Y-2.9834
X5.8846Y-2.3834
X5.8846Y-2.9834
X5.9846Y-2.3834
X5.9846Y-2.9834
X6.0846Y-2.3834
X6.0846Y-2.9834
X6.1118Y-4.335
X6.1118Y-4.435
X6.2118Y-4.335
X6.2118Y-4.435
X6.2205Y-4.9409
X6.3118Y-4.335
X6.3118Y-4.435
X6.4118Y-4.335
X6.4118Y-4.435
X6.5197Y-4.9409
T0
M30
