%TF.GenerationSoftware,KiCad,Pcbnew,7.0.1*%
%TF.CreationDate,2023-04-20T17:50:10-06:00*%
%TF.ProjectId,Phase_B_Prototype,50686173-655f-4425-9f50-726f746f7479,rev?*%
%TF.SameCoordinates,Original*%
%TF.FileFunction,Soldermask,Top*%
%TF.FilePolarity,Negative*%
%FSLAX46Y46*%
G04 Gerber Fmt 4.6, Leading zero omitted, Abs format (unit mm)*
G04 Created by KiCad (PCBNEW 7.0.1) date 2023-04-20 17:50:10*
%MOMM*%
%LPD*%
G01*
G04 APERTURE LIST*
G04 Aperture macros list*
%AMRoundRect*
0 Rectangle with rounded corners*
0 $1 Rounding radius*
0 $2 $3 $4 $5 $6 $7 $8 $9 X,Y pos of 4 corners*
0 Add a 4 corners polygon primitive as box body*
4,1,4,$2,$3,$4,$5,$6,$7,$8,$9,$2,$3,0*
0 Add four circle primitives for the rounded corners*
1,1,$1+$1,$2,$3*
1,1,$1+$1,$4,$5*
1,1,$1+$1,$6,$7*
1,1,$1+$1,$8,$9*
0 Add four rect primitives between the rounded corners*
20,1,$1+$1,$2,$3,$4,$5,0*
20,1,$1+$1,$4,$5,$6,$7,0*
20,1,$1+$1,$6,$7,$8,$9,0*
20,1,$1+$1,$8,$9,$2,$3,0*%
G04 Aperture macros list end*
%ADD10RoundRect,0.243750X-0.243750X-0.456250X0.243750X-0.456250X0.243750X0.456250X-0.243750X0.456250X0*%
%ADD11RoundRect,0.200000X0.200000X0.275000X-0.200000X0.275000X-0.200000X-0.275000X0.200000X-0.275000X0*%
%ADD12R,1.700000X1.700000*%
%ADD13O,1.700000X1.700000*%
%ADD14RoundRect,0.250000X-0.262500X-0.450000X0.262500X-0.450000X0.262500X0.450000X-0.262500X0.450000X0*%
%ADD15RoundRect,0.225000X0.250000X-0.225000X0.250000X0.225000X-0.250000X0.225000X-0.250000X-0.225000X0*%
%ADD16RoundRect,0.150000X-0.150000X0.512500X-0.150000X-0.512500X0.150000X-0.512500X0.150000X0.512500X0*%
%ADD17RoundRect,0.250000X0.450000X-0.262500X0.450000X0.262500X-0.450000X0.262500X-0.450000X-0.262500X0*%
%ADD18RoundRect,0.243750X-0.456250X0.243750X-0.456250X-0.243750X0.456250X-0.243750X0.456250X0.243750X0*%
%ADD19RoundRect,0.225000X-0.250000X0.225000X-0.250000X-0.225000X0.250000X-0.225000X0.250000X0.225000X0*%
%ADD20RoundRect,0.200000X-0.275000X0.200000X-0.275000X-0.200000X0.275000X-0.200000X0.275000X0.200000X0*%
%ADD21RoundRect,0.100000X-0.637500X-0.100000X0.637500X-0.100000X0.637500X0.100000X-0.637500X0.100000X0*%
%ADD22R,1.500000X0.550000*%
%ADD23R,0.550000X1.500000*%
%ADD24RoundRect,0.250000X0.250000X0.475000X-0.250000X0.475000X-0.250000X-0.475000X0.250000X-0.475000X0*%
%ADD25RoundRect,0.225000X-0.225000X-0.250000X0.225000X-0.250000X0.225000X0.250000X-0.225000X0.250000X0*%
%ADD26R,2.000000X1.500000*%
%ADD27R,1.000000X0.700000*%
%ADD28RoundRect,0.250000X-0.312500X-1.450000X0.312500X-1.450000X0.312500X1.450000X-0.312500X1.450000X0*%
%ADD29RoundRect,0.225000X0.225000X0.250000X-0.225000X0.250000X-0.225000X-0.250000X0.225000X-0.250000X0*%
%ADD30RoundRect,0.200000X-0.200000X-0.275000X0.200000X-0.275000X0.200000X0.275000X-0.200000X0.275000X0*%
%ADD31RoundRect,0.250000X0.262500X0.450000X-0.262500X0.450000X-0.262500X-0.450000X0.262500X-0.450000X0*%
%ADD32R,1.200000X1.400000*%
%ADD33RoundRect,0.150000X-0.512500X-0.150000X0.512500X-0.150000X0.512500X0.150000X-0.512500X0.150000X0*%
%ADD34C,1.000000*%
%ADD35R,2.000000X0.500000*%
%ADD36R,1.700000X2.000000*%
%ADD37R,1.500000X1.500000*%
%ADD38C,1.500000*%
%ADD39R,2.000000X2.000000*%
%ADD40C,2.000000*%
G04 APERTURE END LIST*
D10*
%TO.C,D3*%
X124625000Y-102900000D03*
X126500000Y-102900000D03*
%TD*%
D11*
%TO.C,R16*%
X126085000Y-97920000D03*
X124435000Y-97920000D03*
%TD*%
D12*
%TO.C,J3*%
X139200000Y-106890000D03*
D13*
X139200000Y-104350000D03*
X136660000Y-106890000D03*
X136660000Y-104350000D03*
X134120000Y-106890000D03*
X134120000Y-104350000D03*
%TD*%
D14*
%TO.C,R12*%
X118147500Y-79120000D03*
X119972500Y-79120000D03*
%TD*%
D15*
%TO.C,C13*%
X160190000Y-106610000D03*
X160190000Y-105060000D03*
%TD*%
D16*
%TO.C,U5*%
X163910000Y-104712500D03*
X162960000Y-104712500D03*
X162010000Y-104712500D03*
X162010000Y-106987500D03*
X163910000Y-106987500D03*
%TD*%
D17*
%TO.C,R4*%
X166350000Y-89942500D03*
X166350000Y-88117500D03*
%TD*%
D18*
%TO.C,D2*%
X166360000Y-84327500D03*
X166360000Y-86202500D03*
%TD*%
D19*
%TO.C,C7*%
X156710000Y-103560000D03*
X156710000Y-105110000D03*
%TD*%
D12*
%TO.C,J4*%
X155240000Y-110110000D03*
D13*
X155240000Y-112650000D03*
X157780000Y-110110000D03*
X157780000Y-112650000D03*
X160320000Y-110110000D03*
X160320000Y-112650000D03*
X162860000Y-110110000D03*
X162860000Y-112650000D03*
%TD*%
D18*
%TO.C,D1*%
X163360000Y-84337500D03*
X163360000Y-86212500D03*
%TD*%
D20*
%TO.C,R13*%
X142460000Y-108725000D03*
X142460000Y-110375000D03*
%TD*%
D14*
%TO.C,R5*%
X118175000Y-58700000D03*
X120000000Y-58700000D03*
%TD*%
%TO.C,R9*%
X118147500Y-70270000D03*
X119972500Y-70270000D03*
%TD*%
%TO.C,R10*%
X118147500Y-73220000D03*
X119972500Y-73220000D03*
%TD*%
D21*
%TO.C,U2*%
X115137500Y-83825000D03*
X115137500Y-84475000D03*
X115137500Y-85125000D03*
X115137500Y-85775000D03*
X115137500Y-86425000D03*
X115137500Y-87075000D03*
X115137500Y-87725000D03*
X115137500Y-88375000D03*
X120862500Y-88375000D03*
X120862500Y-87725000D03*
X120862500Y-87075000D03*
X120862500Y-86425000D03*
X120862500Y-85775000D03*
X120862500Y-85125000D03*
X120862500Y-84475000D03*
X120862500Y-83825000D03*
%TD*%
D22*
%TO.C,U3*%
X143160000Y-96550000D03*
X143160000Y-97350000D03*
X143160000Y-98150000D03*
X143160000Y-98950000D03*
X143160000Y-99750000D03*
X143160000Y-100550000D03*
X143160000Y-101350000D03*
X143160000Y-102150000D03*
X143160000Y-102950000D03*
X143160000Y-103750000D03*
X143160000Y-104550000D03*
D23*
X144860000Y-106250000D03*
X145660000Y-106250000D03*
X146460000Y-106250000D03*
X147260000Y-106250000D03*
X148060000Y-106250000D03*
X148860000Y-106250000D03*
X149660000Y-106250000D03*
X150460000Y-106250000D03*
X151260000Y-106250000D03*
X152060000Y-106250000D03*
X152860000Y-106250000D03*
D22*
X154560000Y-104550000D03*
X154560000Y-103750000D03*
X154560000Y-102950000D03*
X154560000Y-102150000D03*
X154560000Y-101350000D03*
X154560000Y-100550000D03*
X154560000Y-99750000D03*
X154560000Y-98950000D03*
X154560000Y-98150000D03*
X154560000Y-97350000D03*
X154560000Y-96550000D03*
D23*
X152860000Y-94850000D03*
X152060000Y-94850000D03*
X151260000Y-94850000D03*
X150460000Y-94850000D03*
X149660000Y-94850000D03*
X148860000Y-94850000D03*
X148060000Y-94850000D03*
X147260000Y-94850000D03*
X146460000Y-94850000D03*
X145660000Y-94850000D03*
X144860000Y-94850000D03*
%TD*%
D15*
%TO.C,C2*%
X151360000Y-111870000D03*
X151360000Y-110320000D03*
%TD*%
D20*
%TO.C,R17*%
X166260000Y-107350000D03*
X166260000Y-109000000D03*
%TD*%
D15*
%TO.C,C11*%
X139660000Y-93145000D03*
X139660000Y-91595000D03*
%TD*%
D24*
%TO.C,C4*%
X141250000Y-94990000D03*
X139350000Y-94990000D03*
%TD*%
D14*
%TO.C,R11*%
X118147500Y-76170000D03*
X119972500Y-76170000D03*
%TD*%
D25*
%TO.C,C9*%
X152930000Y-92930000D03*
X154480000Y-92930000D03*
%TD*%
D11*
%TO.C,R1*%
X124790000Y-117940000D03*
X123140000Y-117940000D03*
%TD*%
D19*
%TO.C,C1*%
X145730000Y-110425000D03*
X145730000Y-111975000D03*
%TD*%
D26*
%TO.C,S1*%
X116400000Y-123800000D03*
X130700000Y-123800000D03*
X116400000Y-128800000D03*
X130700000Y-128800000D03*
%TD*%
D27*
%TO.C,S3*%
X140760000Y-114275000D03*
X134760000Y-114275000D03*
X140760000Y-110575000D03*
X134760000Y-110575000D03*
%TD*%
D28*
%TO.C,F2*%
X126762500Y-93500000D03*
X131037500Y-93500000D03*
%TD*%
D14*
%TO.C,R6*%
X118175000Y-61650000D03*
X120000000Y-61650000D03*
%TD*%
D29*
%TO.C,C12*%
X161855000Y-102710000D03*
X160305000Y-102710000D03*
%TD*%
D30*
%TO.C,R15*%
X124450000Y-99500000D03*
X126100000Y-99500000D03*
%TD*%
D25*
%TO.C,C8*%
X145285000Y-92860000D03*
X146835000Y-92860000D03*
%TD*%
D29*
%TO.C,C6*%
X141305000Y-101380000D03*
X139755000Y-101380000D03*
%TD*%
D15*
%TO.C,C14*%
X166270000Y-105740000D03*
X166270000Y-104190000D03*
%TD*%
D14*
%TO.C,R8*%
X118147500Y-67320000D03*
X119972500Y-67320000D03*
%TD*%
D29*
%TO.C,C10*%
X141295000Y-99800000D03*
X139745000Y-99800000D03*
%TD*%
D31*
%TO.C,R14*%
X130425000Y-102900000D03*
X128600000Y-102900000D03*
%TD*%
D14*
%TO.C,R7*%
X118175000Y-64600000D03*
X120000000Y-64600000D03*
%TD*%
D25*
%TO.C,C3*%
X145970000Y-108220000D03*
X147520000Y-108220000D03*
%TD*%
D32*
%TO.C,Y1*%
X149460000Y-112450000D03*
X149460000Y-110250000D03*
X147760000Y-110250000D03*
X147760000Y-112450000D03*
%TD*%
D33*
%TO.C,U4*%
X131755000Y-97730000D03*
X131755000Y-98680000D03*
X131755000Y-99630000D03*
X134030000Y-99630000D03*
X134030000Y-98680000D03*
X134030000Y-97730000D03*
%TD*%
D34*
%TO.C,J1*%
X117275000Y-96900000D03*
X117275000Y-101300000D03*
D35*
X119975000Y-97500000D03*
X119975000Y-98300000D03*
X119975000Y-99100000D03*
X119975000Y-99900000D03*
X119975000Y-100700000D03*
D36*
X119875000Y-94650000D03*
X114425000Y-94650000D03*
X119875000Y-103550000D03*
X114425000Y-103550000D03*
%TD*%
D37*
%TO.C,U1*%
X141850000Y-75777500D03*
D38*
X144390000Y-75777500D03*
X146930000Y-75777500D03*
X149470000Y-75777500D03*
X152010000Y-75777500D03*
X154550000Y-75777500D03*
X154550000Y-60537500D03*
X152010000Y-60537500D03*
X149470000Y-60537500D03*
X146930000Y-60537500D03*
X144390000Y-60537500D03*
X141850000Y-60537500D03*
%TD*%
D17*
%TO.C,R3*%
X163400000Y-89942500D03*
X163400000Y-88117500D03*
%TD*%
D11*
%TO.C,R2*%
X145040000Y-118100000D03*
X143390000Y-118100000D03*
%TD*%
D26*
%TO.C,S2*%
X136600000Y-123800000D03*
X150900000Y-123800000D03*
X136600000Y-128800000D03*
X150900000Y-128800000D03*
%TD*%
D39*
%TO.C,LS1*%
X158000000Y-125500000D03*
D40*
X165600000Y-125500000D03*
%TD*%
D29*
%TO.C,C5*%
X141165000Y-96830000D03*
X139615000Y-96830000D03*
%TD*%
M02*
